<svg width="80" height="80" viewBox="0 0 80 80" fill="none" xmlns="http://www.w3.org/2000/svg">
<path d="M54 36V17.8889C54 16.5923 53.4849 15.3488 52.5681 14.4319C51.6512 13.5151 50.4077 13 49.1111 13H14.8889C13.5923 13 12.3488 13.5151 11.4319 14.4319C10.5151 15.3488 10 16.5923 10 17.8889V57L19.7778 47.2222H38.5" stroke="black" stroke-width="3" stroke-linecap="round" stroke-linejoin="round"/>
<path d="M39 56.6667C39 57.5802 39.3629 58.4563 40.0089 59.1023C40.6548 59.7482 41.5309 60.1111 42.4444 60.1111H63.1111L70 67V39.4444C70 38.5309 69.6371 37.6548 68.9911 37.0089C68.3452 36.3629 67.4691 36 66.5556 36H42.4444C41.5309 36 40.6548 36.3629 40.0089 37.0089C39.3629 37.6548 39 38.5309 39 39.4444V56.6667Z" stroke="black" stroke-width="3" stroke-linecap="round" stroke-linejoin="round"/>
</svg>
