<svg width="50" height="50" viewBox="0 0 50 50" fill="none" xmlns="http://www.w3.org/2000/svg">
<path fill-rule="evenodd" clip-rule="evenodd" d="M25.5 13C18.5937 13 13 18.5058 13 25.3035C13 30.7478 16.5781 35.3463 21.5469 36.9765C22.1719 37.0842 22.4062 36.715 22.4062 36.3921C22.4062 36.0999 22.3906 35.131 22.3906 34.1005C19.25 34.6696 18.4375 33.347 18.1875 32.6549C18.0469 32.3012 17.4375 31.2092 16.9062 30.917C16.4687 30.6863 15.8437 30.1173 16.8906 30.1019C17.875 30.0865 18.5781 30.9939 18.8125 31.363C19.9375 33.2239 21.7344 32.701 22.4531 32.3781C22.5625 31.5783 22.8906 31.04 23.25 30.7325C20.4687 30.4249 17.5625 29.3637 17.5625 24.6576C17.5625 23.3196 18.0469 22.2123 18.8438 21.351C18.7188 21.0434 18.2812 19.7823 18.9687 18.0906C18.9687 18.0906 20.0156 17.7676 22.4062 19.3517C23.4062 19.0749 24.4688 18.9365 25.5313 18.9365C26.5938 18.9365 27.6563 19.0749 28.6563 19.3517C31.0469 17.7522 32.0938 18.0906 32.0938 18.0906C32.7813 19.7823 32.3438 21.0434 32.2188 21.351C33.0156 22.2123 33.5 23.3042 33.5 24.6576C33.5 29.3791 30.5781 30.4249 27.7969 30.7325C28.25 31.1169 28.6406 31.8552 28.6406 33.0086C28.6406 34.6542 28.625 35.9768 28.625 36.3921C28.625 36.715 28.8594 37.0995 29.4844 36.9765C34.4219 35.3463 38 30.7325 38 25.3035C38 18.5058 32.4063 13 25.5 13Z" fill="#00D2FF"/>
</svg>
