<svg width="36" height="36" viewBox="0 0 36 36" fill="none" xmlns="http://www.w3.org/2000/svg">
<rect width="36" height="36" rx="18" fill="url(#paint0_linear_1223_137)"/>
<rect x="34" y="34" width="32" height="32" rx="16" transform="rotate(-180 34 34)" fill="url(#paint1_linear_1223_137)"/>
<path d="M20.795 13.1468C20.8094 13.1034 20.837 13.0658 20.874 13.039C20.911 13.0123 20.9554 12.998 21.0011 12.998C21.0467 12.998 21.0911 13.0123 21.1281 13.039C21.1651 13.0658 21.1927 13.1034 21.2071 13.1468L21.5941 14.3088C21.7671 14.8269 22.1732 15.2329 22.6912 15.4059L23.8533 15.793C23.8966 15.8073 23.9343 15.8349 23.961 15.8719C23.9877 15.9089 24.0021 15.9534 24.0021 15.999C24.0021 16.0446 23.9877 16.0891 23.961 16.126C23.9343 16.163 23.8966 16.1907 23.8533 16.205L22.6912 16.592C22.4357 16.6771 22.2035 16.8206 22.0131 17.011C21.8227 17.2015 21.6792 17.4336 21.5941 17.6891L21.2071 18.8512C21.1927 18.8945 21.1651 18.9322 21.1281 18.9589C21.0911 18.9856 21.0467 19 21.0011 19C20.9554 19 20.911 18.9856 20.874 18.9589C20.837 18.9322 20.8094 18.8945 20.795 18.8512L20.408 17.6891C20.3229 17.4336 20.1794 17.2015 19.989 17.011C19.7986 16.8206 19.5664 16.6771 19.3109 16.592L18.1488 16.205C18.1055 16.1907 18.0678 16.163 18.0411 16.126C18.0144 16.0891 18 16.0446 18 15.999C18 15.9534 18.0144 15.9089 18.0411 15.8719C18.0678 15.8349 18.1055 15.8073 18.1488 15.793L19.3109 15.4059C19.5664 15.3208 19.7986 15.1773 19.989 14.9869C20.1794 14.7965 20.3229 14.5643 20.408 14.3088L20.795 13.1468ZM23.8643 10.0975C23.8742 10.069 23.8927 10.0443 23.9172 10.0269C23.9418 10.0094 23.9712 10 24.0013 10C24.0315 10 24.0608 10.0094 24.0854 10.0269C24.11 10.0443 24.1285 10.069 24.1383 10.0975L24.3964 10.8716C24.5114 11.2176 24.7824 11.4886 25.1284 11.6036L25.9025 11.8616C25.931 11.8715 25.9557 11.89 25.9731 11.9146C25.9906 11.9391 26 11.9685 26 11.9987C26 12.0288 25.9906 12.0582 25.9731 12.0827C25.9557 12.1073 25.931 12.1258 25.9025 12.1357L25.1284 12.3937C24.9579 12.4504 24.8029 12.5461 24.6759 12.6732C24.5488 12.8003 24.4531 12.9552 24.3964 13.1257L24.1383 13.8998C24.1285 13.9283 24.11 13.953 24.0854 13.9705C24.0608 13.9879 24.0315 13.9973 24.0013 13.9973C23.9712 13.9973 23.9418 13.9879 23.9172 13.9705C23.8927 13.953 23.8742 13.9283 23.8643 13.8998L23.6063 13.1257C23.5496 12.9552 23.4539 12.8003 23.3268 12.6732C23.1997 12.5461 23.0447 12.4504 22.8742 12.3937L22.1002 12.1357C22.0717 12.1258 22.047 12.1073 22.0295 12.0827C22.012 12.0582 22.0026 12.0288 22.0026 11.9987C22.0026 11.9685 22.012 11.9391 22.0295 11.9146C22.047 11.89 22.0717 11.8715 22.1002 11.8616L22.8742 11.6036C23.2203 11.4886 23.4913 11.2176 23.6063 10.8716L23.8643 10.0985V10.0975Z" fill="#B7B7B7"/>
<path d="M23.0289 24.2237L23.6578 25.0013L23.0289 24.2237ZM22.2682 21.8004C18.4018 21.8004 15.2675 18.6661 15.2675 14.7996H13.2675C13.2675 19.7706 17.2972 23.8004 22.2682 23.8004V21.8004ZM15.2675 14.7996C15.2675 14.2394 15.3331 13.6959 15.4565 13.1757L13.5106 12.7137C13.3515 13.3842 13.2675 14.0827 13.2675 14.7996H15.2675ZM11.0005 17.9996C11.0005 15.7449 12.0653 13.7393 13.7236 12.4572L12.5004 10.8749C10.3733 12.5194 9.00049 15.0994 9.00049 17.9996H11.0005ZM18.0013 25.0004C14.1348 25.0004 11.0005 21.8661 11.0005 17.9996H9.00049C9.00049 22.9706 13.0303 27.0004 18.0013 27.0004V25.0004ZM22.4001 23.4462C21.1977 24.4187 19.6688 25.0004 18.0013 25.0004V27.0004C20.143 27.0004 22.1124 26.2511 23.6578 25.0013L22.4001 23.4462ZM15.4565 13.1757C15.6474 12.3715 15.383 11.5548 14.8667 11.0381C14.6013 10.7725 14.2337 10.5524 13.788 10.5002C13.3248 10.446 12.8748 10.5855 12.5004 10.8749L13.7236 12.4572C13.7282 12.4537 13.7131 12.4662 13.6774 12.4768C13.6408 12.4876 13.5982 12.4916 13.5555 12.4867C13.471 12.4768 13.4405 12.4403 13.452 12.4518C13.4631 12.4629 13.489 12.4972 13.5054 12.5542C13.521 12.608 13.5226 12.6633 13.5106 12.7137L15.4565 13.1757ZM22.2682 23.8004C22.2802 23.8004 22.2935 23.8036 22.3075 23.8119C22.3245 23.822 22.3267 23.83 22.3203 23.819C22.3141 23.8081 22.285 23.7498 22.2982 23.6522C22.3049 23.6031 22.3213 23.5556 22.3449 23.5149C22.3682 23.4747 22.3915 23.4531 22.4001 23.4462L23.6578 25.0013C23.999 24.7253 24.222 24.3489 24.28 23.9213C24.336 23.5092 24.229 23.1268 24.0551 22.8237C23.7164 22.2333 23.0452 21.8004 22.2682 21.8004V23.8004Z" fill="#B7B7B7"/>
<defs>
<linearGradient id="paint0_linear_1223_137" x1="18" y1="0" x2="18" y2="36" gradientUnits="userSpaceOnUse">
<stop stop-color="white"/>
<stop offset="1" stop-color="#EBEBEB"/>
</linearGradient>
<linearGradient id="paint1_linear_1223_137" x1="50" y1="34" x2="50" y2="66" gradientUnits="userSpaceOnUse">
<stop stop-color="white"/>
<stop offset="1" stop-color="#EBEBEB"/>
</linearGradient>
</defs>
</svg>
