<svg width="160" height="160" viewBox="0 0 160 160" fill="none" xmlns="http://www.w3.org/2000/svg">
<g clip-path="url(#clip0_2001_20707)">
<rect width="160" height="160" rx="80" fill="#3993E7"/>
<g style="mix-blend-mode:luminosity" clip-path="url(#clip1_2001_20707)">
<path d="M131.561 143.704C125.87 139.646 102.391 124.614 79.8359 124.509C79.6199 124.509 79.4113 124.509 79.2028 124.509C78.9868 124.509 78.7782 124.509 78.5622 124.509C56.0069 124.614 32.677 136.218 25.0418 143.33C13.5705 154.02 16.4905 163.296 16.4905 163.296H141.922C141.922 163.296 143.114 151.939 131.569 143.704H131.561Z" fill="#C68A59"/>
<path d="M96.7956 97.228H61.5996V137.468H96.7956V97.228Z" fill="#C68A59"/>
<path d="M96.7956 112.141C96.7956 112.141 88.0506 117.03 79.976 117.135C70.2925 117.262 61.5996 112.141 61.5996 112.141V98.6655H96.7956V112.141Z" fill="#AF7448"/>
<path d="M110.509 57.6471C109.876 57.4675 109.258 57.183 108.662 57.0557C108.722 54.0461 108.558 51.2312 108.066 48.2217C104.141 24.3623 93.9579 19.4287 78.2408 19.4287C62.5236 19.4287 51.3577 27.1173 49.3986 52.7585C49.2943 54.106 49.2496 55.5434 49.2422 57.0332C48.5941 57.1381 47.9312 57.4525 47.2384 57.6471C45.2868 58.2011 46.7245 63.7411 47.3651 69.6854C47.961 75.2553 49.7785 81.1921 51.7227 80.6381C51.827 80.6081 51.9312 80.5333 52.0281 80.4285C52.408 82.2776 52.7804 84.0669 53.3838 87.1214C54.4639 92.6089 57.8233 97.1233 61.95 101.81C64.356 104.55 70.7397 108.593 73.4362 109.85C75.9986 111.048 83.3432 111.16 85.6077 110.112C87.8871 109.057 90.8741 106.923 93.66 104.715C98.8816 100.582 102.554 94.8025 104.081 88.3042C104.662 85.8262 105.273 83.1161 105.809 80.5033C105.876 80.5632 105.951 80.6081 106.025 80.6306C107.977 81.1846 109.787 75.2403 110.383 69.6779C111.023 63.7336 112.454 58.1862 110.509 57.6396V57.6471Z" fill="#C68A59"/>
<path d="M62.3456 81.3793C59.5299 93.6796 62.368 101.57 65.1985 105.838C53.6528 108.959 46.5986 96.5319 43.5967 87.2487C41.6228 81.1398 36.0734 66.4738 42.8519 41.7085C44.9971 33.8627 52.6769 24.7142 59.7534 20.7689C66.8299 16.8235 75.2024 15.1465 83.1951 16.4342C85.3776 16.7861 87.5303 17.355 89.5713 18.216C91.7464 19.1368 93.7725 20.3796 95.7837 21.6223L98.4728 23.2768C98.4728 23.2768 100.134 23.1421 104.566 25.6126C109.035 28.1056 116.112 42.0828 111.769 58.6803C111.136 58.6279 107.799 57.0558 107.799 57.0558L95.7539 36.7151C95.7539 36.7151 70.301 46.6945 62.3605 81.3868L62.3456 81.3793Z" fill="#1E120D"/>
<path d="M133.332 143.891C116.662 132.107 96.9221 126.68 96.9221 126.68L78.6723 137.161L61.5398 125.931C61.5398 125.931 34.91 131.92 23.975 143.509C12.9209 155.218 15.1928 164 15.1928 164H143.962C143.962 164 145.221 152.291 133.332 143.884V143.891Z" fill="white"/>
<path d="M61.5466 125.617L45.8965 129.854L68.4368 152.007L78.6791 136.846L88.7351 151.632L112.013 131.232L96.9289 126.365L78.6791 135.723L61.5466 125.617Z" fill="#1E120D"/>
<path d="M79.0518 153.624C80.3888 153.624 81.4726 152.534 81.4726 151.19C81.4726 149.847 80.3888 148.757 79.0518 148.757C77.7147 148.757 76.6309 149.847 76.6309 151.19C76.6309 152.534 77.7147 153.624 79.0518 153.624Z" fill="#1E120D"/>
<path d="M79.0518 145.082C80.3888 145.082 81.4726 143.992 81.4726 142.648C81.4726 141.305 80.3888 140.215 79.0518 140.215C77.7147 140.215 76.6309 141.305 76.6309 142.648C76.6309 143.992 77.7147 145.082 79.0518 145.082Z" fill="#1E120D"/>
<path d="M79.0518 162.173C80.3888 162.173 81.4726 161.084 81.4726 159.74C81.4726 158.396 80.3888 157.307 79.0518 157.307C77.7147 157.307 76.6309 158.396 76.6309 159.74C76.6309 161.084 77.7147 162.173 79.0518 162.173Z" fill="#1E120D"/>
</g>
</g>
<defs>
<clipPath id="clip0_2001_20707">
<rect width="160" height="160" rx="80" fill="white"/>
</clipPath>
<clipPath id="clip1_2001_20707">
<rect width="129" height="148" fill="white" transform="translate(15 16)"/>
</clipPath>
</defs>
</svg>
