<svg width="35" height="35" viewBox="0 0 35 35" fill="none" xmlns="http://www.w3.org/2000/svg">
<path d="M17.5 35C27.165 35 35 27.165 35 17.5C35 7.83502 27.165 0 17.5 0C7.83502 0 0 7.83502 0 17.5C0 27.165 7.83502 35 17.5 35Z" fill="url(#paint0_linear_2015_125)"/>
<path d="M25.1565 24.4726L19.2389 10.1659C18.9052 9.42625 18.409 9.06543 17.7551 9.06543H17.2319C16.5779 9.06543 16.0817 9.42625 15.748 10.1659L13.1726 16.3992H11.2241C10.6423 16.4037 10.1687 16.8728 10.1642 17.4591V17.4726C10.1687 18.0545 10.6423 18.5281 11.2241 18.5326H12.2705L9.8124 24.4726C9.7673 24.6034 9.74023 24.7388 9.74023 24.8786C9.74023 25.2123 9.84397 25.4739 10.0289 25.6769C10.2138 25.8799 10.4799 25.9791 10.8137 25.9791C11.0347 25.9746 11.2467 25.9069 11.4226 25.7761C11.612 25.6453 11.7428 25.4559 11.8465 25.2394L14.5527 18.5281H16.429C17.0109 18.5235 17.4844 18.0545 17.4889 17.4681V17.4411C17.4844 16.8592 17.0109 16.3857 16.429 16.3812H15.4277L17.4935 11.2349L23.1223 25.2349C23.2261 25.4514 23.3569 25.6408 23.5463 25.7716C23.7222 25.9024 23.9387 25.9701 24.1552 25.9746C24.4889 25.9746 24.7505 25.8754 24.94 25.6724C25.1294 25.4694 25.2286 25.2078 25.2286 24.8741C25.2331 24.7388 25.2106 24.5989 25.1565 24.4726Z" fill="white"/>
<defs>
<linearGradient id="paint0_linear_2015_125" x1="30.5477" y1="6.52129" x2="4.50775" y2="28.4313" gradientUnits="userSpaceOnUse">
<stop stop-color="#B6509E"/>
<stop offset="1" stop-color="#2EBAC6"/>
</linearGradient>
</defs>
</svg>
