<svg width="80" height="80" viewBox="0 0 80 80" fill="none" xmlns="http://www.w3.org/2000/svg">
<circle cx="40" cy="40" r="14.5" stroke="black" stroke-width="3"/>
<circle cx="40" cy="40" r="23.5" stroke="black" stroke-width="3"/>
<path d="M68.9009 11.0989C70.0052 12.2032 70.5861 13.9919 70.4073 16.5863C70.2288 19.1761 69.2985 22.3744 67.6295 25.9905C64.2967 33.2115 58.1598 41.7956 49.9778 49.9776C41.7959 58.1595 33.2117 64.2965 25.9908 67.6292C22.3746 69.2982 19.1763 70.2285 16.5865 70.407C13.9921 70.5858 12.2034 70.005 11.0991 68.9007C9.99483 67.7964 9.41397 66.0076 9.59278 63.4133C9.77127 60.8235 10.7016 57.6252 12.3706 54.009C15.7033 46.788 21.8403 38.2039 30.0222 30.022C38.2041 21.84 46.7883 15.7031 54.0093 12.3703C57.6254 10.7013 60.8237 9.77101 63.4135 9.59251C66.0079 9.41371 67.7966 9.99457 68.9009 11.0989Z" stroke="black" stroke-width="3"/>
</svg>
