<svg width="27" height="39" viewBox="0 0 27 39" fill="none" xmlns="http://www.w3.org/2000/svg">
<path d="M13.4647 0.554199C6.29395 0.554199 0.480469 6.40314 0.480469 13.6176C0.480469 14.8265 0.643876 15.9986 0.949545 17.1107C1.07258 17.5556 1.21676 17.9927 1.38402 18.4163L1.77812 19.3157L11.7032 37.7658C12.4581 39.1692 14.4711 39.1692 15.2259 37.7657L25.1666 19.2828L25.5223 18.4724C25.6991 18.0295 25.851 17.5749 25.9798 17.1088C26.2855 15.9967 26.4489 14.8265 26.4489 13.6157C26.4489 6.40314 20.6354 0.554199 13.4647 0.554199ZM13.4647 19.277C10.2926 19.277 7.7204 16.6891 7.7204 13.4977C7.7204 10.3063 10.2926 7.71838 13.4647 7.71838C16.6367 7.71838 19.2089 10.3063 19.2089 13.4977C19.2089 16.691 16.6367 19.277 13.4647 19.277Z" fill="#00DACC"/>
</svg>
