<svg width="80" height="80" viewBox="0 0 80 80" fill="none" xmlns="http://www.w3.org/2000/svg">
<mask id="path-1-outside-1_1774_40" maskUnits="userSpaceOnUse" x="6" y="7" width="67" height="67" fill="black">
<rect fill="white" x="6" y="7" width="67" height="67"/>
<path d="M69.9833 40.1596C69.6388 23.0093 55.4703 9.42523 38.4387 10.0187C21.8024 10.5969 8.64742 24.6517 9.00721 41.4592C9.26976 53.5985 16.4527 63.9433 26.674 68.7316C27.0877 68.9254 27.5812 68.8022 27.8319 68.4202C29.1344 66.4355 30.2016 63.463 30.7616 61.7254C31.2703 60.4392 31.8026 59.177 32.3558 57.9441C32.5671 57.4733 33.1042 57.253 33.6085 57.3621C36.5756 58.0036 40.1974 56.9429 42.2595 54.6749L42.3446 54.5795C42.347 54.5768 42.3451 54.5726 42.3415 54.5726C42.3409 54.5726 42.3404 54.5725 42.3398 54.5722C40.7863 53.8834 38.9031 53.7843 37.1071 54.1787C36.0761 54.4051 34.7069 53.0869 35.2115 52.1597C35.3261 51.9491 35.4414 51.7396 35.5575 51.531C35.8006 51.0942 36.3304 50.9171 36.813 51.0473C39.7538 51.8406 43.432 50.9557 45.6091 48.7808L45.6989 48.6901C45.7013 48.6877 45.6996 48.6836 45.6962 48.6836C45.6956 48.6836 45.695 48.6835 45.6944 48.6832C44.2937 47.9817 42.5899 47.7656 40.9125 47.9771C39.85 48.1111 38.5316 46.5993 39.1346 45.7142C39.1674 45.666 39.2004 45.6178 39.2333 45.5697C39.4794 45.2105 39.9307 45.0639 40.3573 45.1508C43.3997 45.7707 47.1162 44.5474 49.131 42.1243L49.2111 42.0291C49.2135 42.0263 49.2115 42.022 49.2078 42.022C49.2072 42.022 49.2067 42.0219 49.2062 42.0217C46.761 41.0676 43.5862 41.5547 41.215 43.0639C41.152 43.104 41.069 43.0176 41.1143 42.9583C41.6643 42.2331 42.2266 41.5286 42.7974 40.8372C42.9254 40.6822 43.0981 40.5718 43.2892 40.5093C46.8926 39.3324 50.0521 35.5984 50.5701 31.7431L50.5886 31.5983C50.5895 31.591 50.5838 31.5845 50.5764 31.5845C50.5756 31.5845 50.5748 31.5846 50.574 31.5847C46.758 32.3559 43.2209 36.1207 42.4621 40.1266C42.4484 40.1986 42.4177 40.2654 42.371 40.3218C42.063 40.6929 41.1793 40.2668 41.215 39.7858C41.3565 37.875 40.9697 35.9381 40.0253 34.4505C40.025 34.45 40.0248 34.4493 40.0248 34.4487C40.0248 34.4455 40.0209 34.4441 40.0188 34.4465L39.9336 34.5469C37.9203 37.1085 37.5108 41.2068 38.878 44.115C39.0141 44.4046 39.0046 44.741 38.8229 45.0044C38.297 45.7669 36.3405 45.2114 36.0879 44.3201C35.6631 42.821 34.9031 41.451 33.8555 40.4642C33.8537 40.4624 33.8513 40.4615 33.8488 40.4615C33.845 40.4615 33.8415 40.4637 33.8399 40.4671L33.7868 40.5792C32.4869 43.5335 33.0759 47.5515 35.0637 50.0292C35.2629 50.2774 35.3101 50.6148 35.1547 50.8924C34.7451 51.6241 32.6807 51.1977 32.4139 50.4027C31.9186 48.9267 31.1074 47.5942 30.037 46.6472C30.0322 46.6424 30.024 46.6441 30.0215 46.6504L29.9761 46.7649C28.8104 49.8147 29.5656 53.8721 31.6399 56.3285C31.9126 56.6514 32.0018 57.1006 31.8284 57.4861C31.4744 58.2734 31.1279 59.0709 30.7904 59.8819C30.6944 60.1128 30.383 60.1695 30.1434 60.0983C29.5099 59.909 28.6333 59.5765 27.6654 58.9881C27.0269 58.6043 26.3479 58.2871 25.6435 58.0518C22.8919 57.141 23.2973 55.8005 21.8632 53.1195C21.772 52.9456 20.6318 51.7483 20.3886 51.5334C20.3278 51.4823 19.6032 51.0525 19.2332 50.2697C18.8937 49.5483 18.7062 48.8831 18.6353 48.2282C18.5441 47.3533 18.1843 46.7803 17.3431 46.4886C13.2942 45.0765 15.1084 39.7708 15.2503 39.0647C15.3719 38.461 14.8499 37.1512 14.6574 36.4297C14.6371 36.3428 14.6168 36.2353 14.5915 36.1074C14.2976 34.685 14.9563 33.4827 15.4428 32.9864C15.9293 32.4901 17.6066 31.7022 17.9613 31.2366C18.3059 30.7812 18.5846 30.2593 18.9393 29.8142C19.4106 29.2207 20.8548 28.0593 22.8007 27.0053C23.9763 26.3708 24.1892 24.7029 24.6351 24.1964C25.4053 23.3214 26.5658 23.3214 27.4323 22.5335C27.8681 22.1344 28.5015 21.94 28.9069 21.5205C30.9136 19.4432 33.5993 18.6041 36.2597 18.1027C38.0485 17.765 40.0451 18.2869 41.915 18.6041C42.1437 18.6426 42.3654 18.6954 42.58 18.7565C42.6635 18.7803 42.7489 18.7948 42.8356 18.7981C47.0103 18.955 51.9875 19.8404 53.793 21.6228C54.9331 22.7484 55.4906 23.9712 55.7642 24.8154C56.0682 25.7569 56.4888 26.6574 57.0006 27.5016L58.1256 29.3486C58.835 30.5151 59.0732 31.9222 58.7641 33.2576C58.5918 34.0199 58.5006 34.8181 58.7236 35.2632C59.0732 35.9539 60.1526 37.0846 60.8012 37.7293C61.1154 38.0414 61.46 38.3177 61.8349 38.5582C62.7015 39.1108 64.3382 40.1699 64.3433 40.2619C64.3433 40.3847 64.4801 40.9117 63.7555 41.5462C63.306 41.9398 62.6087 42.479 62.1442 42.8318C61.8489 43.056 61.6878 43.4277 61.8159 43.7756C61.8471 43.8603 61.8837 43.9463 61.9262 44.0276C62.1187 44.396 62.59 44.9486 62.4481 45.4449C62.3062 45.9412 61.2978 46.3403 61.5866 46.8928C61.8755 47.4454 62.5849 47.6194 62.3822 48.1208C62.1745 48.6222 61.1762 49.4818 61.2775 49.8553C61.3789 50.2288 62.1846 53.6619 60.3198 54.2605C58.9111 54.7107 55.0497 54.9666 53.2356 55.0638C52.4501 55.1047 51.7457 55.555 51.3707 56.2457C51.087 56.7675 50.8133 57.4838 50.6714 58.4406C50.3351 60.7788 48.1178 66.0389 47.9501 66.4344C47.9427 66.4519 47.9359 66.4665 47.9276 66.4836C47.9028 66.5344 47.8428 66.6583 47.7627 66.8316C47.555 67.333 47.2611 68.126 47.3016 68.4432C47.327 68.653 47.6107 69.0572 48.0212 69.5535C48.3455 69.9475 48.8826 70.101 49.3641 69.9321C61.5917 65.7162 70.2722 53.8972 69.9935 40.1596"/>
</mask>
<path d="M66.9839 40.2199C67.0172 41.8764 68.3871 43.1923 70.0436 43.159C71.7001 43.1257 73.016 41.7559 72.9827 40.0994L66.9839 40.2199ZM38.4387 10.0187L38.5429 13.0169L38.5432 13.0169L38.4387 10.0187ZM9.00721 41.4592L6.00789 41.5234L6.00791 41.5241L9.00721 41.4592ZM30.7616 61.7254L27.9719 60.622L27.9361 60.7125L27.9062 60.8051L30.7616 61.7254ZM42.2595 54.6749L44.4792 56.6931L44.4891 56.6822L44.499 56.6712L42.2595 54.6749ZM45.6091 48.7808L47.7293 50.9032L47.735 50.8976L47.7406 50.8919L45.6091 48.7808ZM49.131 42.1243L46.8359 40.1923L46.83 40.1993L46.8242 40.2063L49.131 42.1243ZM43.4967 44.7816C44.5036 43.4658 44.2533 41.5829 42.9376 40.5759C41.6218 39.569 39.7389 39.8193 38.7319 41.135L43.4967 44.7816ZM50.5701 31.7431L53.5434 32.1426L53.5447 32.133L53.5459 32.1234L50.5701 31.7431ZM39.9336 34.5469L37.6466 32.6054L37.6099 32.6485L37.5749 32.6931L39.9336 34.5469ZM33.7868 40.5792L31.0756 39.2949L31.0577 39.3327L31.0409 39.3709L33.7868 40.5792ZM27.9055 48.7584C29.0715 49.9356 30.971 49.9446 32.1481 48.7787C33.3253 47.6127 33.3343 45.7132 32.1684 44.5361L27.9055 48.7584ZM29.9761 46.7649L27.187 45.66L27.1804 45.6768L27.1739 45.6938L29.9761 46.7649ZM30.9974 57.2225C29.4091 56.7508 27.7392 57.656 27.2675 59.2443C26.7958 60.8326 27.701 62.5025 29.2893 62.9742L30.9974 57.2225ZM27.6654 58.9881L29.2238 56.4246L29.2173 56.4207L29.2108 56.4167L27.6654 58.9881ZM25.6435 58.0518L26.5943 55.2064L26.5862 55.2037L25.6435 58.0518ZM21.8632 53.1195L19.2063 54.5127L19.2121 54.5236L19.2179 54.5345L21.8632 53.1195ZM20.3886 51.5334L22.3749 49.2852L22.3478 49.2612L22.3201 49.2379L20.3886 51.5334ZM19.2332 50.2697L16.5188 51.5472L16.5208 51.5514L19.2332 50.2697ZM18.6353 48.2282L15.6514 48.5393L15.6527 48.5513L18.6353 48.2282ZM17.3431 46.4886L16.3551 49.3213L16.3604 49.3231L17.3431 46.4886ZM15.2503 39.0647L12.3093 38.4723L12.3091 38.4737L15.2503 39.0647ZM14.6574 36.4297L11.7357 37.1106L11.7465 37.1572L11.7588 37.2034L14.6574 36.4297ZM14.5915 36.1074L17.5343 35.5245L17.5319 35.5124L17.5294 35.5003L14.5915 36.1074ZM17.9613 31.2366L20.3477 33.0546L20.3536 33.0468L17.9613 31.2366ZM18.9393 29.8142L21.2855 31.6838L21.2887 31.6797L18.9393 29.8142ZM22.8007 27.0053L21.376 24.3652L21.3719 24.3674L22.8007 27.0053ZM24.6351 24.1964L22.3834 22.214L24.6351 24.1964ZM27.4323 22.5335L29.4506 24.7531L29.4584 24.746L27.4323 22.5335ZM28.9069 21.5205L31.0643 23.6051L31.0646 23.6048L28.9069 21.5205ZM36.2597 18.1027L36.8154 21.0508L36.8162 21.0506L36.2597 18.1027ZM41.915 18.6041L41.4132 21.5618L41.4171 21.5625L41.915 18.6041ZM53.793 21.6228L55.9006 19.4879L53.793 21.6228ZM55.7642 24.8154L58.619 23.8934L58.618 23.8904L55.7642 24.8154ZM57.0006 27.5016L54.4353 29.0568L54.4385 29.0621L57.0006 27.5016ZM58.1256 29.3486L60.6888 27.7898L60.6878 27.7881L58.1256 29.3486ZM58.7641 33.2576L55.8414 32.581L55.8396 32.5886L55.8379 32.5962L58.7641 33.2576ZM58.7236 35.2632L56.0412 36.6068L56.047 36.6181L58.7236 35.2632ZM60.8012 37.7293L58.6864 39.8571L58.6869 39.8577L60.8012 37.7293ZM61.8349 38.5582L60.2155 41.0835L60.2219 41.0876L61.8349 38.5582ZM64.3433 40.2619H67.3433V40.1795L67.3388 40.0971L64.3433 40.2619ZM63.7555 41.5462L65.7317 43.8033L63.7555 41.5462ZM61.9262 44.0276L59.2675 45.4174L61.9262 44.0276ZM62.3822 48.1208L65.1537 49.2692L65.1587 49.2572L65.1636 49.2451L62.3822 48.1208ZM60.3198 54.2605L61.2331 57.1181L61.2367 57.1169L60.3198 54.2605ZM53.2356 55.0638L53.3917 58.0597L53.3961 58.0595L53.2356 55.0638ZM51.3707 56.2457L54.0063 57.6788L54.0073 57.677L51.3707 56.2457ZM50.6714 58.4406L47.7039 58.0005L47.702 58.0134L50.6714 58.4406ZM47.7627 66.8316L45.0396 65.5729L45.0143 65.6276L44.9913 65.6832L47.7627 66.8316ZM47.3016 68.4432L50.28 68.0835L50.2787 68.0732L50.2774 68.0629L47.3016 68.4432ZM48.0212 69.5535L50.3374 67.6468L50.333 67.6415L48.0212 69.5535ZM49.3641 69.9321L48.3862 67.096L48.3787 67.0986L48.3712 67.1012L49.3641 69.9321ZM72.9929 40.0988C72.9593 38.4423 71.5891 37.1266 69.9326 37.1602C68.2761 37.1938 66.9605 38.564 66.9941 40.2205L72.9929 40.0988ZM30.7904 59.8819L33.5602 61.0345L30.7904 59.8819ZM30.1434 60.0983L29.2843 62.9727L29.2893 62.9742L30.1434 60.0983ZM31.6399 56.3285L33.932 54.3929L31.6399 56.3285ZM31.8284 57.4861L34.5645 58.7164L31.8284 57.4861ZM30.037 46.6472L27.9055 48.7584L27.9751 48.8287L28.0492 48.8942L30.037 46.6472ZM30.0215 46.6504L32.8106 47.7554L30.0215 46.6504ZM47.9501 66.4344L50.7122 67.6052L47.9501 66.4344ZM47.9276 66.4836L45.2318 65.1672L47.9276 66.4836ZM32.5369 49.4271C31.7276 50.8728 32.2436 52.7009 33.6893 53.5102C35.1351 54.3195 36.9632 53.8035 37.7725 52.3578L32.5369 49.4271ZM32.4139 50.4027L29.5698 51.3572L32.4139 50.4027ZM35.1547 50.8924L32.5369 49.4271L35.1547 50.8924ZM33.8488 37.4615C32.192 37.4615 30.8488 38.8046 30.8488 40.4615C30.8488 42.1183 32.192 43.4615 33.8488 43.4615V37.4615ZM33.8399 40.4671L31.1287 39.1829L33.8399 40.4671ZM40.0253 34.4505L37.4926 36.0584L40.0253 34.4505ZM37.0248 34.4487C37.0248 36.1055 38.368 37.4487 40.0248 37.4487C41.6817 37.4487 43.0248 36.1055 43.0248 34.4487H37.0248ZM42.4621 40.1266L45.4096 40.685L42.4621 40.1266ZM44.6796 42.2375C45.7377 40.9625 45.5618 39.0712 44.2867 38.0131C43.0117 36.9551 41.1204 37.131 40.0623 38.406L44.6796 42.2375ZM50.5764 28.5845C48.9195 28.5845 47.5764 29.9276 47.5764 31.5845C47.5764 33.2413 48.9195 34.5845 50.5764 34.5845V28.5845ZM50.574 31.5847L49.9797 28.6442L50.574 31.5847ZM50.5886 31.5983L53.5644 31.9787L50.5886 31.5983ZM42.7974 40.8372L45.1108 42.7472L42.7974 40.8372ZM43.2892 40.5093L44.2206 43.3611L43.2892 40.5093ZM41.215 43.0639L39.6042 40.533L41.215 43.0639ZM41.1143 42.9583L43.4967 44.7816L43.5045 44.7713L41.1143 42.9583ZM49.2078 39.022C47.5509 39.022 46.2078 40.3651 46.2078 42.022C46.2078 43.6789 47.5509 45.022 49.2078 45.022V39.022ZM49.2062 42.0217L50.2967 39.2269L49.2062 42.0217ZM49.2111 42.0291L51.5061 43.9612L49.2111 42.0291ZM42.58 18.7565L43.4019 15.8713L42.58 18.7565ZM42.8356 18.7981L42.7229 21.796L42.8356 18.7981ZM39.2333 45.5697L36.7585 43.8741L39.2333 45.5697ZM40.3573 45.1508L39.7584 48.0905L40.3573 45.1508ZM45.6962 45.6836C44.0393 45.6836 42.6962 47.0267 42.6962 48.6836C42.6962 50.3404 44.0393 51.6836 45.6962 51.6836V45.6836ZM45.6944 48.6832L44.3511 51.3656L45.6944 48.6832ZM45.6989 48.6901L43.5674 46.5791L45.6989 48.6901ZM35.5575 51.531L38.179 52.9897L35.5575 51.531ZM36.813 51.0473L36.0317 53.9437L36.813 51.0473ZM33.8555 40.4642L35.9126 38.2805L33.8555 40.4642ZM37.1071 54.1787L36.4636 51.2485L37.1071 54.1787ZM35.2115 52.1597L32.5765 50.7256L35.2115 52.1597ZM38.878 44.115L41.5929 42.8387L38.878 44.115ZM41.2925 46.7076C42.2332 45.3437 41.8901 43.4755 40.5262 42.5348C39.1622 41.5941 37.294 41.9372 36.3533 43.3011L41.2925 46.7076ZM42.3446 54.5795L40.1052 52.5833L42.3446 54.5795ZM42.3415 57.5726C43.9984 57.5726 45.3415 56.2295 45.3415 54.5726C45.3415 52.9157 43.9984 51.5726 42.3415 51.5726V57.5726ZM40.0188 34.4465L37.7318 32.505L40.0188 34.4465ZM32.3558 57.9441L35.0929 59.1723L32.3558 57.9441ZM33.6085 57.3621L32.9746 60.2943L33.6085 57.3621ZM38.8229 45.0044L41.2925 46.7076L38.8229 45.0044ZM36.0879 44.3201L38.9743 43.5022L36.0879 44.3201ZM42.3398 54.5722L43.5559 51.8298L42.3398 54.5722ZM40.9125 47.9771L40.5372 45.0007L40.9125 47.9771ZM39.1346 45.7142L36.6552 44.0252L39.1346 45.7142ZM62.1442 42.8318L60.33 40.4425L62.1442 42.8318ZM61.8159 43.7756L64.6311 42.739L61.8159 43.7756ZM42.371 40.3218L40.0623 38.406L42.371 40.3218ZM41.215 39.7858L44.2068 40.0074L41.215 39.7858ZM26.674 68.7316L25.4013 71.4483L26.674 68.7316ZM27.8319 68.4202L30.34 70.0662L27.8319 68.4202ZM72.9827 40.0994C72.6051 21.3052 57.0687 6.36771 38.3342 7.02055L38.5432 13.0169C53.8719 12.4827 66.6724 24.7135 66.9839 40.2199L72.9827 40.0994ZM38.3345 7.02054C20.0303 7.65666 5.61358 23.1029 6.00789 41.5234L12.0065 41.395C11.6813 26.2006 23.5746 13.5371 38.5429 13.0169L38.3345 7.02054ZM6.00791 41.5241C6.2958 54.8347 14.1756 66.1894 25.4013 71.4483L27.9466 66.0149C18.7298 61.6971 12.2437 52.3623 12.0065 41.3943L6.00791 41.5241ZM30.34 70.0662C31.8863 67.71 33.0549 64.3897 33.617 62.6456L27.9062 60.8051C27.3483 62.5363 26.3825 65.161 25.3238 66.7742L30.34 70.0662ZM33.5513 62.8288C34.0437 61.5839 34.5585 60.3632 35.0929 59.1723L29.6187 56.7159C29.0467 57.9907 28.4969 59.2946 27.9719 60.622L33.5513 62.8288ZM32.9746 60.2943C36.9257 61.1485 41.6552 59.799 44.4792 56.6931L40.0399 52.6567C38.7395 54.0869 36.2256 54.8586 34.2425 54.4298L32.9746 60.2943ZM44.499 56.6712L44.584 56.5757L40.1052 52.5833L40.0201 52.6787L44.499 56.6712ZM43.5559 51.8298C41.3031 50.8308 38.748 50.7468 36.4636 51.2485L37.7507 57.1089C39.0581 56.8217 40.2696 56.936 41.1237 57.3147L43.5559 51.8298ZM37.8465 53.5939C37.9566 53.3915 38.0675 53.1901 38.179 52.9897L32.936 50.0722C32.8154 50.289 32.6956 50.5068 32.5765 50.7256L37.8465 53.5939ZM36.0317 53.9437C39.9487 55.0004 44.7503 53.8792 47.7293 50.9032L43.4889 46.6584C42.1137 48.0321 39.5589 48.6808 37.5944 48.1508L36.0317 53.9437ZM47.7406 50.8919L47.8304 50.8012L43.5674 46.5791L43.4776 46.6697L47.7406 50.8919ZM47.0378 46.0008C45.0055 44.9829 42.6816 44.7303 40.5372 45.0007L41.2878 50.9535C42.4982 50.8009 43.582 50.9804 44.3511 51.3656L47.0378 46.0008ZM41.6139 47.4033C41.6453 47.3572 41.6767 47.3112 41.7082 47.2653L36.7585 43.8741C36.724 43.9244 36.6896 43.9748 36.6552 44.0252L41.6139 47.4033ZM39.7584 48.0905C43.837 48.9214 48.6866 47.351 51.4377 44.0424L46.8242 40.2063C45.5459 41.7437 42.9624 42.62 40.9562 42.2112L39.7584 48.0905ZM51.426 44.0564L51.5061 43.9612L46.916 40.0971L46.8359 40.1923L51.426 44.0564ZM50.2967 39.2269C46.8049 37.8645 42.6303 38.607 39.6042 40.533L42.8258 45.5948C44.5422 44.5023 46.7171 44.2708 48.1157 44.8165L50.2967 39.2269ZM43.5045 44.7713C44.0252 44.0848 44.5612 43.4129 45.1108 42.7472L40.484 38.9271C39.892 39.6442 39.3035 40.3815 38.7241 41.1454L43.5045 44.7713ZM44.2206 43.3611C48.9122 41.8288 52.871 37.1466 53.5434 32.1426L47.5968 31.3436C47.2332 34.0502 44.873 36.8361 42.3578 37.6576L44.2206 43.3611ZM53.5459 32.1234L53.5644 31.9787L47.6128 31.218L47.5943 31.3628L53.5459 32.1234ZM49.9797 28.6442C47.3448 29.1767 44.9806 30.6917 43.1929 32.5804C41.4002 34.4743 40.0157 36.9226 39.5145 39.5683L45.4096 40.685C45.6673 39.3248 46.4308 37.8878 47.5503 36.705C48.6749 35.5169 49.9872 34.764 51.1683 34.5253L49.9797 28.6442ZM44.2068 40.0074C44.3854 37.5961 43.9178 34.9844 42.5581 32.8426L37.4926 36.0584C38.0217 36.8918 38.3276 38.154 38.2232 39.5642L44.2068 40.0074ZM37.7318 32.505L37.6466 32.6054L42.2206 36.4884L42.3059 36.388L37.7318 32.505ZM37.5749 32.6931C34.8416 36.1708 34.3262 41.4842 36.163 45.3914L41.5929 42.8387C40.6953 40.9293 40.9989 38.0463 42.2923 36.4007L37.5749 32.6931ZM38.9743 43.5022C38.432 41.5885 37.4289 39.7088 35.9126 38.2805L31.7985 42.6478C32.3773 43.1931 32.8943 44.0536 33.2016 45.138L38.9743 43.5022ZM31.1287 39.1829L31.0756 39.2949L36.498 41.8634L36.5511 41.7514L31.1287 39.1829ZM31.0409 39.3709C29.2777 43.3782 30.0561 48.5815 32.7237 51.9065L37.4037 48.1519C36.0956 46.5214 35.6962 43.6888 36.5328 41.7874L31.0409 39.3709ZM35.258 49.4482C34.6305 47.5783 33.564 45.762 32.0247 44.4003L28.0492 48.8942C28.6508 49.4264 29.2067 50.2751 29.5698 51.3572L35.258 49.4482ZM27.2324 45.5454L27.187 45.66L32.7652 47.8699L32.8106 47.7554L27.2324 45.5454ZM27.1739 45.6938C25.6054 49.7971 26.5919 55.0005 29.3479 58.264L33.932 54.3929C32.5393 52.7437 32.0153 49.8324 32.7784 47.8361L27.1739 45.6938ZM29.0923 56.2558C28.7278 57.0663 28.37 57.8899 28.0206 58.7294L33.5602 61.0345C33.8858 60.2519 34.221 59.4804 34.5645 58.7164L29.0923 56.2558ZM31.0024 57.224C30.5653 57.0933 29.9329 56.8557 29.2238 56.4246L26.107 61.5516C27.3336 62.2972 28.4546 62.7247 29.2843 62.9727L31.0024 57.224ZM29.2108 56.4167C28.3941 55.9259 27.5165 55.5146 26.5943 55.2064L24.6928 60.8971C25.1793 61.0597 25.6597 61.2828 26.12 61.5594L29.2108 56.4167ZM26.5862 55.2037C26.1194 55.0492 25.976 54.9378 25.9622 54.9269C25.9576 54.9232 25.9573 54.9226 25.9592 54.9245C25.9611 54.9264 25.9619 54.9276 25.961 54.9263C25.9595 54.9245 25.9398 54.8998 25.9012 54.8281C25.7928 54.6267 25.7015 54.3896 25.4576 53.7795C25.2377 53.2294 24.9457 52.5218 24.5086 51.7045L19.2179 54.5345C19.4978 55.0578 19.6929 55.5231 19.8863 56.0068C20.0557 56.4306 20.3039 57.0882 20.6174 57.6709C20.9752 58.3359 21.4685 59.0186 22.2252 59.621C22.9541 60.2013 23.7918 60.599 24.7009 60.8998L26.5862 55.2037ZM24.5201 51.7264C24.348 51.398 24.1261 51.1358 24.114 51.1209C24.0365 51.0254 23.9531 50.9288 23.8786 50.8443C23.7263 50.6716 23.5441 50.4737 23.3694 50.2878C23.0638 49.9625 22.6204 49.5021 22.3749 49.2852L18.4023 53.7817C18.3708 53.7538 18.3689 53.7503 18.4162 53.7968C18.4538 53.8337 18.505 53.885 18.568 53.9491C18.6935 54.0769 18.8464 54.2362 18.9964 54.3959C19.1486 54.5579 19.2838 54.7054 19.3785 54.8128C19.4012 54.8386 19.4193 54.8594 19.4331 54.8755C19.4473 54.8922 19.4535 54.8998 19.4533 54.8996C19.453 54.8992 19.4495 54.8948 19.4434 54.887C19.4375 54.8795 19.4264 54.865 19.4116 54.8447C19.3977 54.8257 19.3734 54.7917 19.3436 54.7465C19.3175 54.7066 19.2648 54.6242 19.2063 54.5127L24.5201 51.7264ZM22.3201 49.2379C22.2468 49.1763 22.1857 49.1309 22.163 49.1142C22.1339 49.0927 22.1095 49.0754 22.0962 49.0661C22.0725 49.0494 22.0451 49.0305 22.0399 49.0269C22.0185 49.0122 22.0078 49.0047 21.9968 48.9967C21.9754 48.9812 21.9543 48.9646 21.9347 48.9469C21.9252 48.9384 21.9176 48.9309 21.9119 48.925C21.9062 48.919 21.9038 48.916 21.9041 48.9164C21.9045 48.9169 21.9089 48.9224 21.916 48.9335C21.9231 48.9447 21.9338 48.9628 21.9456 48.9879L16.5208 51.5514C16.9314 52.4203 17.5044 53.0315 17.9189 53.4049C18.1344 53.599 18.329 53.7484 18.4721 53.8522C18.5434 53.904 18.6022 53.9446 18.6334 53.9662C18.6546 53.9808 18.6493 53.9772 18.6431 53.9728C18.6386 53.9696 18.6217 53.9577 18.599 53.9409C18.5826 53.9288 18.5266 53.8874 18.4572 53.829L22.3201 49.2379ZM21.9477 48.9922C21.7347 48.5397 21.6493 48.1956 21.6178 47.9051L15.6527 48.5513C15.7632 49.5706 16.0528 50.5569 16.5188 51.5472L21.9477 48.9922ZM21.6191 47.9171C21.5401 47.1592 21.3169 46.2433 20.7116 45.3959C20.0804 44.5124 19.2219 43.9648 18.3258 43.6542L16.3604 49.3231C16.346 49.3181 16.2661 49.2884 16.1561 49.2107C16.0409 49.1293 15.9257 49.0185 15.8293 48.8835C15.637 48.6143 15.6393 48.4223 15.6515 48.5393L21.6191 47.9171ZM18.331 43.656C18.0009 43.5408 17.9382 43.4245 17.9037 43.3632C17.8286 43.2293 17.7354 42.9465 17.7244 42.4462C17.6993 41.2969 18.0274 40.472 18.1915 39.6558L12.3091 38.4737C12.3312 38.3634 11.6814 40.5445 11.7259 42.5776C11.7497 43.6685 11.9533 45.021 12.6723 46.3012C13.432 47.654 14.6609 48.7304 16.3551 49.3213L18.331 43.656ZM18.1912 39.6571C18.328 38.9781 18.2516 38.3608 18.1987 38.0284C18.1372 37.6417 18.042 37.2706 17.9586 36.9755C17.8737 36.6751 17.7792 36.3786 17.708 36.154C17.6275 35.9002 17.5824 35.7554 17.5559 35.6561L11.7588 37.2034C11.8286 37.4648 11.921 37.7542 11.9887 37.9678C12.0657 38.2106 12.1302 38.4145 12.1847 38.6072C12.2407 38.8052 12.2651 38.9198 12.2733 38.9711C12.2768 38.9933 12.2711 38.9666 12.2691 38.9027C12.2673 38.8461 12.2657 38.6891 12.3093 38.4723L18.1912 39.6571ZM17.5791 35.7489C17.5796 35.7513 17.5767 35.7388 17.5678 35.6943C17.5637 35.6736 17.5591 35.6504 17.5533 35.6212C17.5479 35.5934 17.5412 35.5594 17.5343 35.5245L11.6487 36.6903C11.6644 36.7699 11.7004 36.9592 11.7357 37.1106L17.5791 35.7489ZM17.5294 35.5003C17.5094 35.4035 17.5171 35.3024 17.5567 35.1889C17.577 35.1309 17.6014 35.083 17.6205 35.0519C17.6431 35.0152 17.6402 35.0304 17.5852 35.0864L13.3004 30.8864C12.2812 31.9261 11.1136 34.1013 11.6536 36.7145L17.5294 35.5003ZM17.5852 35.0864C17.4583 35.2159 17.4109 35.2253 17.6316 35.0812C17.8084 34.9658 18.0188 34.8395 18.3041 34.667C18.5575 34.5137 18.8866 34.314 19.182 34.1116C19.3326 34.0084 19.5107 33.8801 19.6879 33.7329C19.8472 33.6006 20.1065 33.3711 20.3477 33.0546L15.575 29.4185C15.6595 29.3076 15.7326 29.2317 15.7727 29.1921C15.8151 29.1504 15.845 29.1251 15.8545 29.1172C15.8702 29.1042 15.8553 29.1177 15.7911 29.1616C15.6571 29.2534 15.4699 29.369 15.1989 29.533C14.9597 29.6777 14.6374 29.8705 14.3517 30.057C14.1101 30.2148 13.6706 30.5087 13.3004 30.8864L17.5852 35.0864ZM20.3536 33.0468C20.6076 32.7112 20.8299 32.3607 20.966 32.1501C21.1278 31.8998 21.2126 31.7753 21.2855 31.6838L16.5932 27.9446C16.3114 28.2982 16.0794 28.6572 15.927 28.893C15.749 29.1685 15.6596 29.3066 15.5691 29.4263L20.3536 33.0468ZM21.2887 31.6797C21.2822 31.6879 21.5153 31.4327 22.1145 30.9843C22.6597 30.5763 23.3839 30.1012 24.2295 29.6432L21.3719 24.3674C20.2716 24.9634 19.3008 25.5959 18.5196 26.1805C17.7924 26.7247 17.0677 27.347 16.5899 27.9487L21.2887 31.6797ZM24.2254 29.6454C25.7122 28.843 26.4019 27.4956 26.7198 26.8005C26.8606 26.4926 27.0534 26.0113 27.0863 25.934C27.2025 25.6608 27.1373 25.8942 26.8868 26.1787L22.3834 22.214C22.1133 22.5208 21.9352 22.8261 21.8289 23.0257C21.7173 23.2352 21.6281 23.4373 21.565 23.5854C21.3958 23.9832 21.3784 24.0535 21.2633 24.3052C21.0693 24.7293 21.0648 24.5331 21.376 24.3652L24.2254 29.6454ZM26.8868 26.1787C26.7723 26.3088 26.6617 26.3073 27.1597 26.0981C27.5218 25.946 28.5605 25.5625 29.4506 24.7531L25.414 20.3139C25.4376 20.2925 25.4628 20.303 24.8355 20.5665C24.344 20.773 23.2682 21.209 22.3834 22.214L26.8868 26.1787ZM29.4584 24.746C29.3943 24.8047 29.36 24.8225 29.4014 24.7961C29.454 24.7626 29.5111 24.7301 29.6721 24.6379C29.8964 24.5094 30.523 24.1653 31.0643 23.6051L26.7495 19.4359C26.8361 19.3463 26.8973 19.307 26.8842 19.3159C26.8644 19.3293 26.8221 19.3558 26.6899 19.4315C26.5874 19.4902 26.3792 19.6073 26.1777 19.7356C25.9651 19.8711 25.6882 20.0628 25.4062 20.321L29.4584 24.746ZM31.0646 23.6048C32.4075 22.2147 34.3243 21.5203 36.8154 21.0508L35.7041 15.1546C32.8744 15.6879 29.4197 16.6717 26.7493 19.4361L31.0646 23.6048ZM36.8162 21.0506C37.2551 20.9678 37.8372 20.9714 38.6593 21.0813C39.5699 21.2031 40.271 21.3681 41.4132 21.5618L42.4167 15.6464C41.6891 15.5229 40.4569 15.2683 39.4546 15.1343C38.3637 14.9884 37.0532 14.8999 35.7032 15.1548L36.8162 21.0506ZM41.4171 21.5625C41.5166 21.5792 41.6286 21.6049 41.7582 21.6418L43.4019 15.8713C43.1022 15.7859 42.7709 15.706 42.4128 15.6457L41.4171 21.5625ZM42.7229 21.796C44.6654 21.869 46.7573 22.1117 48.5225 22.5227C50.4489 22.9713 51.4189 23.4947 51.6853 23.7577L55.9006 19.4879C54.3616 17.9685 51.9403 17.158 49.8831 16.679C47.6646 16.1625 45.1805 15.8841 42.9483 15.8002L42.7229 21.796ZM51.6853 23.7577C52.3944 24.4578 52.7409 25.2175 52.9104 25.7405L58.618 23.8904C58.2402 22.7249 57.4718 21.0391 55.9006 19.4879L51.6853 23.7577ZM52.9094 25.7374C53.29 26.9159 53.8114 28.0278 54.4353 29.0568L59.566 25.9463C59.1662 25.2869 58.8465 24.5978 58.619 23.8934L52.9094 25.7374ZM54.4385 29.0621L55.5634 30.9091L60.6878 27.7881L59.5628 25.941L54.4385 29.0621ZM55.5624 30.9074C55.8736 31.4192 55.9699 32.0258 55.8414 32.581L61.6868 33.9341C62.1765 31.8186 61.7965 29.6111 60.6888 27.7898L55.5624 30.9074ZM55.8379 32.5962C55.7319 33.0652 55.6268 33.6443 55.5989 34.2385C55.5749 34.7495 55.5809 35.6877 56.0412 36.6068L61.4059 33.9196C61.476 34.0595 61.5176 34.1807 61.5425 34.2695C61.5675 34.3584 61.5792 34.4272 61.5848 34.4688C61.5952 34.5461 61.59 34.5695 61.5923 34.5201C61.5944 34.4756 61.6012 34.3996 61.6183 34.2895C61.6351 34.1813 61.6591 34.057 61.6903 33.9189L55.8379 32.5962ZM56.047 36.6181C56.4095 37.3343 56.9967 38.0381 57.3956 38.4925C57.8524 39.013 58.3368 39.5097 58.6864 39.8571L62.916 35.6015C62.6169 35.3043 62.2374 34.9133 61.905 34.5345C61.7389 34.3454 61.6026 34.1796 61.5013 34.0451C61.3874 33.8937 61.3728 33.8542 61.4002 33.9083L56.047 36.6181ZM58.6869 39.8577C59.1524 40.3201 59.6631 40.7293 60.2155 41.0835L63.4544 36.0328C63.2569 35.9061 63.0783 35.7627 62.9155 35.601L58.6869 39.8577ZM60.2219 41.0876C60.6491 41.3601 61.2552 41.7503 61.7483 42.079C61.9994 42.2464 62.1949 42.3803 62.3169 42.4683C62.385 42.5173 62.388 42.5219 62.3566 42.4959C62.3489 42.4895 62.2668 42.4225 62.1634 42.3152C62.116 42.266 61.9984 42.1412 61.8723 41.9593C61.808 41.8664 61.7067 41.7093 61.6111 41.499C61.5235 41.3064 61.3755 40.9292 61.3478 40.4268L67.3388 40.0971C67.2899 39.2092 66.8563 38.6173 66.804 38.5418C66.6713 38.3504 66.5441 38.2144 66.4842 38.1522C66.3559 38.019 66.2373 37.9193 66.1827 37.8741C66.0573 37.7703 65.9249 37.6727 65.8253 37.6009C65.612 37.4471 65.3431 37.2644 65.076 37.0864C64.5329 36.7244 63.8873 36.3089 63.448 36.0287L60.2219 41.0876ZM61.3433 40.2619C61.3433 40.3893 61.3514 40.4924 61.3535 40.519C61.355 40.539 61.3565 40.5563 61.3572 40.5643C61.3583 40.5775 61.3581 40.575 61.3585 40.5801C61.3589 40.5845 61.3551 40.5424 61.354 40.4841C61.3515 40.3571 61.3613 40.183 61.41 39.9873C61.4591 39.7904 61.535 39.6219 61.6191 39.4891C61.7007 39.3605 61.7694 39.2977 61.7793 39.289L65.7317 43.8033C66.4995 43.1311 67.0111 42.3251 67.2323 41.4371C67.4056 40.7409 67.3433 39.6695 67.3433 40.2619H61.3433ZM61.7793 39.289C61.4183 39.6051 60.7987 40.0866 60.33 40.4425L63.9583 45.2211C64.4187 44.8715 65.1936 44.2744 65.7317 43.8033L61.7793 39.289ZM59.0007 44.8122C59.0654 44.988 59.1522 45.1968 59.2675 45.4174L64.5848 42.6379C64.6008 42.6685 64.6118 42.6923 64.6185 42.7078C64.6253 42.7234 64.6293 42.7341 64.6311 42.739L59.0007 44.8122ZM59.2675 45.4174C59.3332 45.5431 59.3978 45.6523 59.4425 45.7262C59.485 45.7966 59.5347 45.876 59.5592 45.9155C59.6269 46.0246 59.6369 46.0451 59.6338 46.039C59.6315 46.0344 59.5658 45.908 59.5198 45.6933C59.4706 45.4631 59.4332 45.0767 59.5637 44.6202L65.3325 46.2695C65.7275 44.888 65.1969 43.7454 64.9913 43.3376C64.8641 43.0853 64.729 42.8675 64.6586 42.7539C64.5558 42.588 64.5682 42.606 64.5848 42.6379L59.2675 45.4174ZM59.5637 44.6202C59.6586 44.2881 59.7982 44.0566 59.8804 43.9361C59.9629 43.8152 60.03 43.745 60.0374 43.7372C60.0452 43.729 60.0385 43.7367 59.9814 43.7904C59.9435 43.8261 59.8401 43.9221 59.7476 44.0134C59.6001 44.1591 59.1504 44.6007 58.8507 45.2566C58.6824 45.625 58.5368 46.1097 58.5349 46.6827C58.533 47.269 58.6826 47.8132 58.928 48.2826L64.2453 45.5031C64.4185 45.8344 64.5364 46.2451 64.5349 46.702C64.5335 47.1454 64.4203 47.5044 64.3081 47.7499C64.2012 47.9839 64.0854 48.1371 64.0335 48.2018C63.9798 48.2686 63.9454 48.3006 63.9641 48.2821C63.9885 48.258 64.0087 48.2395 64.0927 48.1604C64.1574 48.0995 64.2708 47.9925 64.3887 47.8684C64.506 47.7447 64.673 47.5576 64.8366 47.3178C65 47.0783 65.2021 46.7257 65.3325 46.2695L59.5637 44.6202ZM58.928 48.2826C59.2021 48.807 59.5402 49.1731 59.7619 49.3903C59.8726 49.4988 59.9748 49.5894 60.0337 49.6413C60.0729 49.6759 60.0817 49.6835 60.1047 49.704C60.1214 49.7188 60.1257 49.7228 60.124 49.7212C60.122 49.7194 60.1073 49.7057 60.0852 49.6829C60.063 49.66 60.0275 49.6221 59.9849 49.5707C59.9034 49.4723 59.7641 49.2863 59.6436 49.0158C59.5162 48.7296 59.4224 48.3766 59.4182 47.9782C59.4141 47.5843 59.4986 47.2496 59.6009 46.9964L65.1636 49.2451C65.5079 48.3932 65.5105 47.441 65.1245 46.5744C64.82 45.8909 64.3515 45.4594 64.2136 45.3308C64.1279 45.2511 64.0305 45.1662 64.0038 45.1427C63.9585 45.1026 63.954 45.0977 63.9608 45.1043C63.9745 45.1178 64.1156 45.2549 64.2453 45.5031L58.928 48.2826ZM59.6107 46.9724C59.7245 46.6979 59.8441 46.5737 59.7335 46.7169C59.6369 46.8419 59.5806 46.9037 59.3836 47.1467C59.2501 47.3114 58.9985 47.6244 58.7898 47.9805C58.6832 48.1624 58.5255 48.4587 58.413 48.8349C58.305 49.1962 58.1701 49.8592 58.3822 50.6409L64.1728 49.0696C64.3596 49.7579 64.2337 50.3124 64.1617 50.5532C64.0853 50.809 63.9906 50.9729 63.9666 51.0138C63.9352 51.0674 63.9195 51.0858 63.9406 51.0572C63.9594 51.0317 63.991 50.991 64.0444 50.9252C64.1027 50.8533 64.1518 50.7943 64.2331 50.6953C64.3042 50.6088 64.3929 50.4999 64.4819 50.3847C64.5696 50.2712 64.6782 50.125 64.7857 49.9599C64.8873 49.8036 65.0312 49.5649 65.1537 49.2692L59.6107 46.9724ZM58.3822 50.6409C58.3799 50.6325 58.4263 50.8112 58.4697 51.0853C58.5133 51.3614 58.5415 51.6581 58.5365 51.9153C58.5309 52.2058 58.4862 52.2489 58.5341 52.1423C58.5669 52.0694 58.6468 51.9216 58.8093 51.7636C58.9817 51.5961 59.1911 51.472 59.4028 51.4041L61.2367 57.1169C62.6785 56.6541 63.5516 55.6147 64.0067 54.602C64.4249 53.6716 64.522 52.7209 64.5354 52.0316C64.5623 50.6461 64.2579 49.3831 64.1728 49.0696L58.3822 50.6409ZM59.4065 51.4029C59.0579 51.5143 58.0622 51.6709 56.6408 51.8085C55.3335 51.935 53.9625 52.0205 53.075 52.0681L53.3961 58.0595C54.3228 58.0098 55.7895 57.9189 57.2186 57.7806C58.5336 57.6533 60.1729 57.4569 61.2331 57.1181L59.4065 51.4029ZM53.0794 52.0678C51.2366 52.1639 49.6004 53.2189 48.7342 54.8143L54.0073 57.677C53.8911 57.891 53.6636 58.0455 53.3917 58.0597L53.0794 52.0678ZM48.7352 54.8126C48.2832 55.6438 47.8973 56.6963 47.7039 58.0005L53.639 58.8807C53.7294 58.2714 53.8908 57.8913 54.0063 57.6788L48.7352 54.8126ZM47.702 58.0134C47.5869 58.8139 47.0697 60.4188 46.4363 62.1185C45.8412 63.7157 45.2643 65.0838 45.188 65.2636L50.7122 67.6052C50.8037 67.3896 51.4192 65.9298 52.0587 64.2135C52.66 62.5997 53.4196 60.4055 53.6409 58.8678L47.702 58.0134ZM45.2318 65.1672C45.1994 65.2336 45.1301 65.3771 45.0396 65.5729L50.4859 68.0902C50.5555 67.9396 50.6062 67.8351 50.6234 67.7999L45.2318 65.1672ZM44.9913 65.6832C44.8705 65.9746 44.7084 66.3888 44.5768 66.8078C44.5117 67.0154 44.4384 67.273 44.3845 67.5455C44.3437 67.7514 44.2524 68.2489 44.3258 68.8235L50.2774 68.0629C50.2939 68.1917 50.2978 68.2987 50.2978 68.3754C50.2979 68.4533 50.294 68.5163 50.2902 68.5607C50.2829 68.6459 50.2725 68.6994 50.2702 68.7107C50.2674 68.7252 50.2674 68.7225 50.2734 68.6999C50.2792 68.6784 50.2882 68.6469 50.3013 68.6052C50.328 68.5201 50.3638 68.4171 50.4066 68.303C50.4487 68.1905 50.4931 68.0792 50.5342 67.98L44.9913 65.6832ZM44.3233 68.803C44.3879 69.338 44.5735 69.751 44.6696 69.9485C44.7839 70.1833 44.9107 70.3888 45.016 70.5478C45.2269 70.8661 45.4772 71.1847 45.7094 71.4655L50.333 67.6415C50.2487 67.5396 50.1792 67.4525 50.1236 67.3796C50.0667 67.3051 50.0336 67.2577 50.0179 67.234C49.9979 67.2038 50.0233 67.2379 50.0644 67.3224C50.0862 67.3671 50.1233 67.4482 50.1613 67.5593C50.1977 67.6655 50.2514 67.8466 50.28 68.0835L44.3233 68.803ZM45.705 71.4602C46.8185 72.8128 48.672 73.354 50.3569 72.7631L48.3712 67.1012C49.0933 66.8479 49.8725 67.0821 50.3374 67.6468L45.705 71.4602ZM50.3419 72.7683C63.7791 68.1353 73.2984 55.1613 72.9929 40.0988L66.9941 40.2205C67.2459 52.6331 59.4044 63.297 48.3862 67.096L50.3419 72.7683ZM28.0206 58.7294C28.4179 57.7748 29.2049 57.359 29.6985 57.2183C30.1713 57.0835 30.6166 57.1094 30.9974 57.2225L29.2893 62.9742C29.9098 63.1585 30.6306 63.1915 31.343 62.9885C32.0762 62.7795 33.0669 62.22 33.5602 61.0345L28.0206 58.7294ZM29.3479 58.264C28.9749 57.8224 28.7323 57.0564 29.0923 56.2558L34.5645 58.7164C35.2712 57.1449 34.8504 55.4804 33.932 54.3929L29.3479 58.264ZM32.1684 44.5361C30.6406 42.9937 28.032 43.5271 27.2324 45.5454L32.8106 47.7554C32.016 49.7611 29.4237 50.2912 27.9055 48.7584L32.1684 44.5361ZM45.188 65.2636C45.1967 65.2433 45.2056 65.2231 45.2145 65.2038C45.2229 65.1855 45.2294 65.1721 45.2318 65.1672L50.6234 67.7999C50.6472 67.751 50.6781 67.6859 50.7122 67.6052L45.188 65.2636ZM32.5369 49.4271C33.0457 48.5181 33.8506 48.3247 34.0091 48.2934C34.1323 48.269 34.2141 48.2687 34.2444 48.2694C34.2626 48.2698 34.2748 48.2709 34.2813 48.2716C34.2879 48.2723 34.2914 48.2729 34.2926 48.2731C34.2929 48.2732 34.2967 48.2737 34.3085 48.278C34.3185 48.2816 34.359 48.2967 34.4235 48.3348C34.463 48.3582 34.9941 48.662 35.258 49.4482L29.5698 51.3572C29.9671 52.541 30.8563 53.1961 31.3707 53.5002C31.9559 53.846 32.5901 54.0566 33.1689 54.167C33.7379 54.2755 34.4447 54.3235 35.1732 54.1794C35.8424 54.047 37.0588 53.6326 37.7725 52.3578L32.5369 49.4271ZM32.7237 51.9065C32.2557 51.3232 32.0223 50.3464 32.5369 49.4271L37.7725 52.3578C38.5979 50.8831 38.27 49.2316 37.4037 48.1519L32.7237 51.9065ZM33.8488 37.4615C32.6857 37.4615 31.6266 38.1317 31.1287 39.1829L36.5511 41.7514C36.0565 42.7957 35.0043 43.4615 33.8488 43.4615V37.4615ZM42.5581 32.8426C42.8637 33.3241 43.0248 33.8814 43.0248 34.4487H37.0248C37.0248 35.0173 37.1863 35.5758 37.4926 36.0584L42.5581 32.8426ZM39.5145 39.5683C39.5916 39.1612 39.7716 38.7563 40.0623 38.406L44.6796 42.2375C45.0638 41.7745 45.3053 41.2359 45.4096 40.685L39.5145 39.5683ZM50.5764 28.5845C50.377 28.5845 50.1771 28.6043 49.9797 28.6442L51.1683 34.5253C50.9724 34.5648 50.7741 34.5845 50.5764 34.5845V28.5845ZM53.5644 31.9787C53.7945 30.1781 52.3916 28.5845 50.5764 28.5845V34.5845C48.776 34.5845 47.3846 33.0039 47.6128 31.218L53.5644 31.9787ZM45.1108 42.7472C44.8377 43.078 44.5088 43.267 44.2206 43.3611L42.3578 37.6576C41.6875 37.8765 41.0131 38.2864 40.484 38.9271L45.1108 42.7472ZM39.6042 40.533C41.1484 39.5502 42.6619 40.3163 43.2914 40.9741C43.9259 41.6371 44.6601 43.2614 43.4967 44.7816L38.7319 41.135C37.5232 42.7144 38.2762 44.4116 38.9566 45.1226C39.6321 45.8283 41.2186 46.6176 42.8258 45.5948L39.6042 40.533ZM49.2078 39.022C49.5794 39.022 49.9487 39.0912 50.2967 39.2269L48.1157 44.8165C48.4647 44.9526 48.8351 45.022 49.2078 45.022V39.022ZM51.5061 43.9612C53.1511 42.0071 51.762 39.022 49.2078 39.022V45.022C46.6609 45.022 45.2759 42.0455 46.916 40.0971L51.5061 43.9612ZM41.7582 21.6418C42.0513 21.7252 42.3748 21.7829 42.7229 21.796L42.9483 15.8002C43.1229 15.8068 43.2758 15.8354 43.4019 15.8713L41.7582 21.6418ZM41.7082 47.2653C41.1676 48.0542 40.3198 48.2048 39.7584 48.0905L40.9562 42.2112C39.5416 41.923 37.7911 42.3669 36.7585 43.8741L41.7082 47.2653ZM45.6962 45.6836C46.1607 45.6836 46.6202 45.7916 47.0378 46.0008L44.3511 51.3656C44.7698 51.5753 45.2304 51.6836 45.6962 51.6836V45.6836ZM47.8304 50.8012C49.7087 48.9048 48.3653 45.6836 45.6962 45.6836V51.6836C43.0338 51.6836 41.6939 48.4707 43.5674 46.5791L47.8304 50.8012ZM38.179 52.9897C37.6439 53.9513 36.6507 54.1107 36.0317 53.9437L37.5944 48.1508C36.0101 47.7234 33.9573 48.237 32.936 50.0722L38.179 52.9897ZM35.9126 38.2805C35.3514 37.7518 34.6122 37.4615 33.8488 37.4615V43.4615C33.0905 43.4615 32.356 43.1731 31.7985 42.6478L35.9126 38.2805ZM36.4636 51.2485C36.9352 51.145 37.2791 51.2477 37.4196 51.3039C37.5681 51.3633 37.6609 51.4354 37.7279 51.5039C37.7874 51.5647 37.9345 51.7334 38.0283 52.0532C38.1334 52.4111 38.1702 52.9991 37.8465 53.5939L32.5765 50.7256C31.3797 52.9244 32.6718 54.9156 33.439 55.6997C34.2578 56.5367 35.8535 57.5255 37.7507 57.1089L36.4636 51.2485ZM36.163 45.3914C35.9044 44.8413 35.8535 44.0257 36.3533 43.3011L41.2925 46.7076C42.1556 45.4562 42.1238 43.968 41.5929 42.8387L36.163 45.3914ZM44.584 56.5757C46.3102 54.6393 44.9356 51.5726 42.3415 51.5726V57.5726C39.7546 57.5726 38.3838 54.5144 40.1052 52.5833L44.584 56.5757ZM43.0248 34.4487C43.0248 31.6533 39.541 30.3739 37.7318 32.505L42.3059 36.388C40.5008 38.5143 37.0248 37.2378 37.0248 34.4487H43.0248ZM35.0929 59.1723C34.6285 60.2071 33.6139 60.4326 32.9746 60.2943L34.2425 54.4298C32.5944 54.0735 30.5056 54.7395 29.6187 56.7159L35.0929 59.1723ZM36.3533 43.3011C36.8446 42.5888 37.5102 42.4177 37.7417 42.3812C37.9858 42.3426 38.1138 42.3805 38.1194 42.382C38.134 42.3859 38.1999 42.4021 38.3145 42.4856C38.3948 42.5441 38.7884 42.8463 38.9743 43.5022L33.2016 45.138C33.5137 46.2395 34.2466 46.9454 34.7812 47.335C35.3501 47.7494 35.9854 48.024 36.5864 48.1829C37.1784 48.3393 37.91 48.4288 38.6767 48.3079C39.4308 48.1889 40.5383 47.8012 41.2925 46.7076L36.3533 43.3011ZM42.3415 51.5726C42.7587 51.5726 43.1725 51.6598 43.5559 51.8298L41.1237 57.3147C41.5082 57.4852 41.9232 57.5726 42.3415 57.5726V51.5726ZM40.5372 45.0007C41.0361 44.9378 41.3707 45.0832 41.483 45.1414C41.6078 45.2062 41.6744 45.2714 41.7185 45.3252C41.7548 45.3695 41.879 45.5309 41.9447 45.844C42.0182 46.1947 42.0184 46.8094 41.6139 47.4033L36.6552 44.0252C35.1991 46.1627 36.4161 48.3217 37.0796 49.1305C37.8075 50.0179 39.3245 51.2011 41.2878 50.9535L40.5372 45.0007ZM60.33 40.4425C59.2824 41.2379 58.2994 42.9076 59.0007 44.8122L64.6311 42.739C65.0762 43.9478 64.4154 44.874 63.9583 45.2211L60.33 40.4425ZM40.0623 38.406C40.6707 37.6729 41.4637 37.4824 41.9427 37.4644C42.3972 37.4473 42.7371 37.5625 42.944 37.66C43.1566 37.7603 43.422 37.9329 43.6662 38.2336C43.9073 38.5305 44.2705 39.1462 44.2068 40.0074L38.2232 39.5642C38.1416 40.6659 38.6019 41.5152 39.0083 42.0157C39.4178 42.5199 39.9167 42.8661 40.3843 43.0866C40.8461 43.3044 41.4624 43.4867 42.1682 43.4601C42.8983 43.4327 43.9173 43.1562 44.6796 42.2375L40.0623 38.406ZM25.4013 71.4483C27.0762 72.2329 29.2173 71.777 30.34 70.0662L25.3238 66.7742C25.9451 65.8274 27.0993 65.618 27.9466 66.0149L25.4013 71.4483Z" fill="black" mask="url(#path-1-outside-1_1774_40)"/>
</svg>
