<svg width="160" height="160" viewBox="0 0 160 160" fill="none" xmlns="http://www.w3.org/2000/svg">
<g clip-path="url(#clip0_2001_22259)">
<rect width="160" height="160" rx="80" fill="#8D5DEC"/>
<g style="mix-blend-mode:luminosity" clip-path="url(#clip1_2001_22259)">
<path d="M134.21 143.509C127.783 139.808 104.666 137.839 80.669 137.728C80.4392 137.728 80.2173 137.728 79.9954 137.728C79.7656 137.728 79.5437 137.728 79.3139 137.728C55.3171 137.839 32.208 139.808 25.7729 143.509C11.3654 151.812 13.2753 178.7 13.2753 178.7H146.723C146.723 178.7 148.633 151.812 134.218 143.509H134.21Z" fill="#E2A679"/>
<path d="M98.7149 108.911H61.2695V151.417H98.7149V108.911Z" fill="#E2A679"/>
<path d="M98.7149 124.664C98.7149 124.664 89.411 129.828 80.8204 129.939C70.5179 130.073 61.2695 124.664 61.2695 124.664V110.43H98.7149V124.664Z" fill="#C68A59"/>
<path d="M112.44 68.9438C111.767 68.754 111.109 68.4535 110.475 68.3191C110.538 65.1401 110.364 62.1666 109.841 58.9876C105.664 33.7846 94.831 28.5732 78.1093 28.5732C61.3877 28.5732 49.5082 36.6948 47.4239 63.7799C47.313 65.2033 47.2654 66.7217 47.2575 68.2954C46.568 68.4061 45.8627 68.7382 45.1257 68.9438C43.0494 69.529 44.5789 75.381 45.2604 81.66C45.8944 87.5436 47.8281 93.8147 49.8965 93.2295C50.0075 93.1978 50.1184 93.1187 50.2214 93.008C50.6256 94.9613 51.0219 96.8513 51.6638 100.078C52.8129 105.874 56.387 110.643 60.7775 115.593C63.3372 118.488 70.1289 122.758 72.9977 124.087C75.7239 125.352 83.5379 125.471 85.9471 124.363C88.3721 123.248 91.55 120.995 94.514 118.662C100.069 114.297 103.976 108.191 105.601 101.327C106.219 98.7097 106.869 95.847 107.44 93.0871C107.511 93.1504 107.59 93.1978 107.669 93.2216C109.746 93.8067 111.671 87.5278 112.305 81.6521C112.987 75.3731 114.509 69.5132 112.44 68.9359V68.9438Z" fill="#E2A679"/>
<path d="M110.95 51.7992C110.784 50.0831 110.57 48.375 110.324 46.6748C110.736 47.1176 111.156 47.5526 111.568 47.9954C111.243 44.9745 110.166 42.0406 108.462 39.518C109.001 39.3045 109.69 39.684 109.793 40.2534C109.072 35.3346 105.791 30.8587 101.306 28.6919C100.79 28.4467 100.22 28.2332 99.6651 28.3597C99.6334 28.2095 99.6096 28.075 99.5621 27.9169C99.1579 26.446 94.9022 17.8736 84.1877 19.0915C85.0277 19.645 85.5429 20.0642 86.3829 20.6177C82.8087 19.2259 77.5307 17.1303 73.6554 18.4114C74.4083 18.5379 76.3103 18.3956 76.6669 19.0678C71.1908 18.3639 62.4496 20.5149 58.7882 23.3065C59.2717 23.5833 59.8264 23.6781 60.4762 23.6623C56.5455 24.4136 52.0203 26.8572 49.4447 31.0959C50.5701 31.0168 52.4086 29.3719 56.6881 29.0635C43.6199 30.3209 45.4822 45.0299 45.4822 45.0299C46.9325 42.0011 48.47 39.8817 49.9519 39.257C50.0074 39.8976 43.3029 44.2391 46.0766 54.0213C46.4808 53.7999 46.8929 51.8545 47.4159 51.1665C46.1638 54.8042 46.7265 66.7612 46.7661 67.0696C47.5348 73.1825 53.1694 113.537 53.8272 114.637C54.6831 116.068 67.5691 124.055 69.376 124.767C74.337 126.736 86.4304 126.396 88.6415 125.597C90.6782 124.862 103.572 115.926 106.116 113.735C106.465 113.435 111.164 71.3004 111.259 70.1538C111.259 70.1379 111.259 70.1221 111.259 70.1063C112.408 60.6799 111.917 57.9437 110.942 51.7992H110.95ZM84.5364 107.923C82.4997 108.271 83.2367 104.198 82.5472 103.874C82.1827 103.7 79.5516 103.573 79.1553 103.565C78.553 103.549 78.981 108.239 76.8967 108.191C68.2348 107.994 64.7002 102.782 64.8112 99.2949C64.9459 95.1037 71.8089 92.5335 80.2094 92.8024C88.6098 93.0792 95.1637 94.8032 95.0211 98.9944C94.9022 102.506 91.0348 106.815 84.5364 107.923ZM99.5779 93.0634C98.8964 93.095 90.3137 88.7614 87.8886 88.3186C85.6142 87.9073 82.9038 90.1532 80.5977 90.0109C78.1013 89.8606 74.6223 87.9311 72.1338 88.1841C69.3997 88.4609 61.4035 93.5379 60.6585 93.2611C60.2464 93.1029 51.3943 77.6901 50.6969 75.895L50.5384 75.6103C50.2293 71.0157 50.2293 66.2156 50.6335 61.6605C52.5988 56.5282 53.7083 45.022 83.5933 44.16C89.006 44.0018 95.7977 42.9659 96.9944 40.5381C97.5333 42.5072 105.022 43.9386 109.151 62.4118C109.563 64.2623 109.318 70.739 108.921 74.4241C106.79 81.6521 100.03 93.0476 99.5779 93.0713V93.0634Z" fill="#442919"/>
<path d="M135.177 143.176C128.901 139.681 98.984 137.767 98.984 137.767C98.984 137.767 88.5469 148.111 80.2257 154.438L61.4357 137.665C61.4357 137.665 29.7517 140.322 24.8145 143.176C10.1454 151.63 12.087 179 12.087 179H147.905C147.905 179 149.965 151.425 135.177 143.184V143.176Z" fill="#83BEFF"/>
</g>
</g>
<defs>
<clipPath id="clip0_2001_22259">
<rect width="160" height="160" rx="80" fill="white"/>
</clipPath>
<clipPath id="clip1_2001_22259">
<rect width="136" height="161" fill="white" transform="translate(12 18)"/>
</clipPath>
</defs>
</svg>
