<svg width="38" height="38" viewBox="0 0 38 38" fill="none" xmlns="http://www.w3.org/2000/svg">
<g clip-path="url(#clip0_2265_76)">
<path fill-rule="evenodd" clip-rule="evenodd" d="M19.095 6.05771C20.7674 6.00545 22.0807 4.60735 22.0285 2.93498C21.9762 1.2626 20.5781 -0.050757 18.9057 0.0015073C17.2334 0.0537716 15.92 1.45187 15.9723 3.12424C16.0245 4.79662 17.4226 6.10998 19.095 6.05771ZM32.4349 9.85297C33.6199 8.66802 33.6199 6.75081 32.4349 5.56586C31.2534 4.38429 29.3361 4.38429 28.1512 5.56586C26.9696 6.75081 26.9696 8.66802 28.1512 9.85297C29.3361 11.0345 31.2534 11.0345 32.4349 9.85297ZM29.4719 20.1046C30.0816 19.4949 30.0816 18.5062 29.4719 17.8965C28.8621 17.2867 27.8735 17.2867 27.2637 17.8965C26.654 18.5062 26.654 19.4949 27.2637 20.1046C27.8735 20.7144 28.8621 20.7144 29.4719 20.1046ZM26.7325 11.2729C27.3406 11.8843 27.3406 12.8724 26.7325 13.4804C26.1212 14.0918 25.133 14.0918 24.5216 13.4804C23.9136 12.8724 23.9136 11.8843 24.5216 11.2729C25.133 10.6649 26.1212 10.6649 26.7325 11.2729ZM20.4417 9.0341C20.7717 9.83079 20.3934 10.7441 19.5967 11.0741C18.8 11.4041 17.8866 11.0258 17.5566 10.2291C17.2266 9.43244 17.605 8.51908 18.4017 8.18908C19.1983 7.85908 20.1117 8.23741 20.4417 9.0341ZM13.481 13.4804C14.0924 12.8724 14.0924 11.8843 13.481 11.2729C12.873 10.6649 11.8852 10.6649 11.2735 11.2729C10.6655 11.8843 10.6655 12.8724 11.2735 13.4804C11.8849 14.0918 12.873 14.0918 13.481 13.4804ZM9.79729 17.4497C10.6548 17.5407 11.2762 18.3097 11.1851 19.1672C11.0941 20.0247 10.3251 20.646 9.46762 20.555C8.61012 20.464 7.98877 19.695 8.0798 18.8375C8.17084 17.98 8.93979 17.3587 9.79729 17.4497ZM9.85176 9.85297C11.0333 8.66802 11.0333 6.75081 9.85176 5.56586C8.66681 4.38429 6.7496 4.38429 5.56465 5.56586C4.38308 6.75081 4.38308 8.66802 5.56465 9.85297C6.7496 11.0345 8.66681 11.0345 9.85176 9.85297ZM6.05916 19.0007C6.05916 20.6739 4.70277 22.0303 3.02958 22.0303C1.35639 22.0303 0 20.6739 0 19.0007C0 17.3275 1.35639 15.9711 3.02958 15.9711C4.70277 15.9711 6.05916 17.3275 6.05916 19.0007ZM5.56465 28.1519C4.38308 29.3369 4.38308 31.2541 5.56465 32.4356C6.7496 33.6206 8.66681 33.6206 9.85176 32.4356C11.0333 31.2541 11.0333 29.3369 9.85176 28.1519C8.66681 26.9703 6.7496 26.9703 5.56465 28.1519ZM11.2735 26.7319C10.6655 26.1205 10.6655 25.1324 11.2735 24.521C11.8852 23.913 12.873 23.913 13.481 24.521C14.0924 25.1324 14.0924 26.1205 13.481 26.7319C12.873 27.3399 11.8849 27.3399 11.2735 26.7319ZM21.1434 37.1135C22.3265 35.9304 22.3265 34.0122 21.1434 32.8291C19.9602 31.6459 18.042 31.6459 16.8589 32.8291C15.6758 34.0122 15.6758 35.9304 16.8589 37.1135C18.042 38.2967 19.9602 38.2967 21.1434 37.1135ZM19.0003 26.808C19.8639 26.808 20.5617 27.5092 20.5617 28.3694C20.5617 29.2329 19.8605 29.9308 19.0003 29.9308C18.1401 29.9308 17.4389 29.2296 17.4389 28.3694C17.4389 27.5092 18.1367 26.808 19.0003 26.808ZM19.0014 13.0726C15.7264 13.0726 13.0732 15.7258 13.0732 19.0008C13.0732 22.2758 15.7264 24.9323 19.0014 24.9323C22.2764 24.9323 24.9329 22.2758 24.9329 19.0008C24.9329 15.7258 22.2764 13.0726 19.0014 13.0726ZM24.5216 26.7319C23.9136 26.1205 23.9136 25.1324 24.5216 24.521C25.133 23.913 26.1212 23.913 26.7325 24.521C27.3406 25.1324 27.3406 26.1205 26.7325 26.7319C26.1212 27.3399 25.133 27.3399 24.5216 26.7319ZM28.1512 28.1519C26.9696 29.3369 26.9696 31.2541 28.1512 32.4356C29.3361 33.6206 31.2534 33.6206 32.4349 32.4356C33.6199 31.2541 33.6199 29.3369 32.4349 28.1519C31.2534 26.9703 29.3361 26.9703 28.1512 28.1519ZM38 19.0007C38 20.6739 36.6436 22.0303 34.9704 22.0303C33.2972 22.0303 31.9408 20.6739 31.9408 19.0007C31.9408 17.3275 33.2972 15.9711 34.9704 15.9711C36.6436 15.9711 38 17.3275 38 19.0007Z" fill="url(#paint0_linear_2265_76)"/>
</g>
<defs>
<linearGradient id="paint0_linear_2265_76" x1="0" y1="0" x2="38.0016" y2="37.9997" gradientUnits="userSpaceOnUse">
<stop stop-color="#AA2EFF"/>
<stop offset="1" stop-color="#00DACC"/>
</linearGradient>
<clipPath id="clip0_2265_76">
<rect width="38" height="38" fill="white"/>
</clipPath>
</defs>
</svg>
