<svg width="31" height="38" viewBox="0 0 31 38" fill="none" xmlns="http://www.w3.org/2000/svg">
<path d="M9.02892 5.40261L11.5835 0.642442C11.7881 0.261171 12.2149 0 12.6358 0H30.2024C31.0052 0 31.278 0.876924 30.6662 1.48124L18.123 13.8382C17.5092 14.4425 17.784 15.3195 18.5868 15.3195H26.5176C27.336 15.3195 27.5991 16.2269 26.9541 16.8274L4.50816 37.6639C3.69755 38.415 2.54982 37.803 2.99215 36.8537L8.83211 24.3251C9.10296 23.7437 8.75416 23.1813 8.12477 23.1832L0.799979 23.2003C0.14525 23.2003 -0.197704 22.5979 0.119918 22.0032L2.58685 17.4031L9.02892 5.40261Z" fill="url(#paint0_linear_2241_659)"/>
<defs>
<linearGradient id="paint0_linear_2241_659" x1="0" y1="0" x2="37.2263" y2="30.368" gradientUnits="userSpaceOnUse">
<stop stop-color="#AA2EFF"/>
<stop offset="1" stop-color="#00DACC"/>
</linearGradient>
</defs>
</svg>
