<svg width="38" height="38" viewBox="0 0 38 38" fill="none" xmlns="http://www.w3.org/2000/svg">
<g clip-path="url(#clip0_2265_115)">
<path fill-rule="evenodd" clip-rule="evenodd" d="M21.7018 1.11963L36.8801 16.2962H36.8804C38.3732 17.7891 38.3732 20.2089 36.8804 21.7018L21.7018 36.8804C20.2089 38.3732 17.7891 38.3732 16.2962 36.8804L1.11963 21.7018C-0.37321 20.2089 -0.37321 17.7891 1.11963 16.2962L16.2962 1.11963C17.7891 -0.37321 20.2089 -0.37321 21.7018 1.11963ZM18.9989 25.9394C21.4187 25.9394 23.3875 23.9707 23.3875 21.5508V16.4475C23.3875 14.0276 21.4187 12.0589 18.9989 12.0589C16.579 12.0589 14.6103 14.0276 14.6103 16.4475V21.5508C14.6103 23.9707 16.579 25.9394 18.9989 25.9394ZM21.8586 21.5506V16.4472C21.8586 14.8703 20.576 13.5878 18.9991 13.5878C17.4222 13.5878 16.1396 14.8703 16.1396 16.4472V21.5506C16.1396 23.1275 17.4222 24.4101 18.9991 24.4101C20.576 24.4101 21.8586 23.1275 21.8586 21.5506Z" fill="url(#paint0_linear_2265_115)"/>
</g>
<defs>
<linearGradient id="paint0_linear_2265_115" x1="0" y1="0" x2="38.0008" y2="37.9997" gradientUnits="userSpaceOnUse">
<stop stop-color="#AA2EFF"/>
<stop offset="1" stop-color="#00DACC"/>
</linearGradient>
<clipPath id="clip0_2265_115">
<rect width="38" height="38" fill="white"/>
</clipPath>
</defs>
</svg>
