<svg width="38" height="38" viewBox="0 0 38 38" fill="none" xmlns="http://www.w3.org/2000/svg">
<g clip-path="url(#clip0_2265_107)">
<path fill-rule="evenodd" clip-rule="evenodd" d="M21.2505 0.260758L33.1686 3.90307H33.1689C34.2584 4.23557 35 5.22942 35 6.35424V24.5723C35 27.6067 33.3961 30.4187 30.7689 31.9921L21.7747 37.3731C20.3768 38.209 18.6232 38.209 17.2253 37.3731L8.23112 31.9921C5.60387 30.419 4 27.6067 4 24.5723V6.35424C4 5.22942 4.74162 4.23557 5.83106 3.90307L17.7495 0.260758C18.8895 -0.0869192 20.1108 -0.0869192 21.2505 0.260758ZM9.21344 20.3142L12.1242 16.7514C12.2735 16.5709 12.2425 16.305 12.0581 16.1586L11.5164 15.7348C11.33 15.5906 11.0583 15.619 10.9107 15.8014L8.85038 18.3228C8.77858 18.4102 8.64645 18.4237 8.55713 18.3495L8.38048 18.2031C8.19781 18.053 7.92609 18.076 7.77271 18.2545L7.32608 18.7734C7.1727 18.9518 7.19625 19.218 7.37864 19.3681L8.59791 20.3732C8.78432 20.5269 9.06207 20.4985 9.21344 20.3142ZM20.5511 28.1764C20.5511 28.0035 20.6795 27.8534 20.8541 27.8231H20.8538C23.8226 27.3214 26.0595 25.203 26.0595 22.67C26.0595 20.1371 23.8226 18.0167 20.8538 17.515C20.6789 17.4847 20.5508 17.3346 20.5508 17.1617V11.5185C20.5508 11.281 20.7817 11.1101 21.0167 11.1728C22.6013 11.5871 23.7703 12.6301 23.9372 13.8823C23.9605 14.0591 24.1176 14.19 24.3003 14.19H25.6749C25.8886 14.19 26.0615 14.0132 26.042 13.8061C25.8303 11.4463 23.673 9.512 20.8536 9.03503C20.6786 9.00664 20.5505 8.85656 20.5505 8.68173V7.99762C20.5505 7.79807 20.3854 7.63842 20.1835 7.63842H18.8145C18.6126 7.63842 18.4475 7.79807 18.4475 7.99762V8.68173C18.4475 8.85656 18.3194 9.00664 18.1444 9.03503C15.1737 9.5387 12.9388 11.6571 12.9388 14.19C12.9388 16.723 15.1737 18.8417 18.1444 19.345C18.3194 19.3754 18.4475 19.5235 18.4475 19.6983V25.3396C18.4475 25.5771 18.2165 25.748 17.9816 25.6873C16.3972 25.273 15.2282 24.228 15.0614 22.9758C15.0381 22.7993 14.881 22.67 14.6983 22.67H13.3216C13.1099 22.67 12.937 22.8449 12.9566 23.052C13.1682 25.4138 15.3256 27.3461 18.145 27.8231C18.3199 27.8534 18.448 28.0035 18.448 28.1764V28.8625C18.448 29.06 18.6132 29.2217 18.8151 29.2217H20.184C20.3859 29.2217 20.5511 29.06 20.5511 28.8625V28.1764ZM28.7686 20.3142L31.6794 16.7514C31.8287 16.5709 31.7977 16.305 31.6133 16.1586L31.0716 15.7348C30.8852 15.5906 30.6135 15.619 30.4659 15.8014L28.4056 18.3228C28.3338 18.4102 28.2016 18.4237 28.1123 18.3495L27.9357 18.2031C27.753 18.053 27.4813 18.076 27.3279 18.2545L26.8813 18.7734C26.7279 18.9518 26.7514 19.218 26.9338 19.3681L28.1531 20.3732C28.3395 20.5269 28.6173 20.4985 28.7686 20.3142ZM17.9833 11.1722C16.2703 11.6202 15.043 12.8038 15.043 14.1903C15.043 15.5768 16.2703 16.7606 17.9833 17.2087C18.218 17.2699 18.4492 17.099 18.4492 16.8613V11.5193C18.4492 11.2818 18.218 11.1107 17.9833 11.1719V11.1722ZM21.0164 19.6512C20.7817 19.5899 20.5508 19.7608 20.5508 19.9986V25.3405C20.5508 25.578 20.782 25.7492 21.0164 25.6879C22.7297 25.2399 23.957 24.0563 23.957 22.6696C23.957 21.2828 22.7297 20.0992 21.0164 19.6512Z" fill="url(#paint0_linear_2265_107)"/>
</g>
<defs>
<linearGradient id="paint0_linear_2265_107" x1="4" y1="0" x2="41.2263" y2="30.368" gradientUnits="userSpaceOnUse">
<stop stop-color="#AA2EFF"/>
<stop offset="1" stop-color="#00DACC"/>
</linearGradient>
<clipPath id="clip0_2265_107">
<rect width="38" height="38" fill="white"/>
</clipPath>
</defs>
</svg>
