<svg width="38" height="38" viewBox="0 0 38 38" fill="none" xmlns="http://www.w3.org/2000/svg">
<g clip-path="url(#clip0_2265_103)">
<path d="M19.4561 27.9303C19.1166 28.3734 18.468 28.4239 18.0635 28.0392L11.0864 21.3945C10.7109 21.0368 10.6965 20.443 11.0541 20.0675L12.681 18.3591C13.0387 17.9836 13.6325 17.9691 14.008 18.3268L17.5696 21.7186C17.9737 22.1037 18.6227 22.0529 18.9622 21.6098L35.0206 0.65321C35.162 0.46838 35.0673 0.202052 34.8422 0.142083C34.4978 0.0501287 34.1367 0 33.7634 0H3.85837C1.72744 0.000307538 0 1.72775 0 3.85868V34.1419C0 36.2729 1.72744 38.0003 3.85837 38.0003H34.1416C36.2726 38.0003 38 36.2729 38 34.1419V4.3003C38 3.70122 37.7392 4.07026 37.7392 4.07026L19.4561 27.9303Z" fill="url(#paint0_linear_2265_103)"/>
</g>
<defs>
<linearGradient id="paint0_linear_2265_103" x1="0" y1="0" x2="38.0011" y2="37.9997" gradientUnits="userSpaceOnUse">
<stop stop-color="#AA2EFF"/>
<stop offset="1" stop-color="#00DACC"/>
</linearGradient>
<clipPath id="clip0_2265_103">
<rect width="38" height="38" fill="white"/>
</clipPath>
</defs>
</svg>
