<svg width="38" height="38" viewBox="0 0 38 38" fill="none" xmlns="http://www.w3.org/2000/svg">
<path d="M32.5429 3.90307L20.8805 0.260758C19.7652 -0.0869192 18.5701 -0.0869192 17.4546 0.260758L5.79179 3.90307C4.72571 4.23557 4 5.22942 4 6.35424V24.5723C4 27.6067 5.56946 30.419 8.14036 31.9921L16.9416 37.3731C18.3096 38.209 20.0255 38.209 21.3934 37.3731L30.1947 31.9921C32.7656 30.4187 34.335 27.6067 34.335 24.5723V6.35424C34.335 5.22942 33.609 4.23557 32.5429 3.90307ZM29.1682 14.2477L17.6201 24.9512C17.4883 25.0731 17.2828 25.0661 17.16 24.9349L11.1837 18.5569C11.0603 18.4254 11.0671 18.2188 11.1986 18.0954L13.3516 16.0779C13.4831 15.9546 13.6897 15.9613 13.8131 16.0928L17.3427 19.8594C17.4655 19.9904 17.6713 19.9977 17.8031 19.8754L26.7238 11.5995C26.8562 11.4766 27.0633 11.4848 27.1859 11.6175L29.1868 13.7861C29.3087 13.9185 29.3009 14.1245 29.1688 14.2468L29.1682 14.2477Z" fill="url(#paint0_linear_2265_80)"/>
<defs>
<linearGradient id="paint0_linear_2265_80" x1="4" y1="0" x2="41.0562" y2="29.5808" gradientUnits="userSpaceOnUse">
<stop stop-color="#AA2EFF"/>
<stop offset="1" stop-color="#00DACC"/>
</linearGradient>
</defs>
</svg>
