<svg width="38" height="38" viewBox="0 0 38 38" fill="none" xmlns="http://www.w3.org/2000/svg">
<g clip-path="url(#clip0_2265_99)">
<path d="M34.2 0H3.79997C1.70241 0 0 1.70241 0 3.79997V34.2C0 36.2994 1.70241 38 3.79997 38H34.2C36.2994 38 38 36.2994 38 34.2V3.79997C38 1.70241 36.2994 0 34.2 0ZM24.6468 4.0223H24.795C25.1883 4.0223 25.5075 4.3415 25.5075 4.73666C25.5075 5.13182 25.1883 5.44917 24.795 5.44917H24.6468C24.2534 5.44917 23.9342 5.12997 23.9342 4.73666C23.9342 4.34335 24.2534 4.0223 24.6468 4.0223ZM20.3757 4.0223H20.522C20.9172 4.0223 21.2364 4.3415 21.2364 4.73666C21.2364 5.13182 20.9172 5.44917 20.522 5.44917H20.3757C19.9824 5.44917 19.6632 5.12997 19.6632 4.73666C19.6632 4.34335 19.9824 4.0223 20.3757 4.0223ZM16.1046 4.0223H16.251C16.6461 4.0223 16.9653 4.3415 16.9653 4.73666C16.9653 5.13182 16.6461 5.44917 16.251 5.44917H16.1046C15.7094 5.44917 15.3902 5.12997 15.3902 4.73666C15.3902 4.34335 15.7094 4.0223 16.1046 4.0223ZM11.8314 4.0223H11.9796C12.3729 4.0223 12.6921 4.3415 12.6921 4.73666C12.6921 5.13182 12.3729 5.44917 11.9796 5.44917H11.8314C11.438 5.44917 11.1188 5.12997 11.1188 4.73666C11.1188 4.34335 11.438 4.0223 11.8314 4.0223ZM7.41943 4.11364C7.47632 4.10226 7.53536 4.09088 7.5941 4.08135C7.98157 4.01677 8.34843 4.27908 8.41301 4.66839C8.47759 5.05586 8.21528 5.42457 7.82781 5.48915C7.78783 5.49499 7.75001 5.50238 7.71187 5.51006C7.66236 5.52144 7.61316 5.52513 7.5655 5.52513C7.23492 5.52513 6.93847 5.29511 6.86805 4.959C6.78625 4.57337 7.03349 4.19513 7.41912 4.11364H7.41943ZM4.08104 7.5984C4.09057 7.53936 4.1001 7.48247 4.11148 7.42558C4.19113 7.03995 4.56937 6.79302 4.955 6.87082C5.34062 6.95047 5.58971 7.32871 5.50976 7.71433C5.50207 7.75247 5.49469 7.79214 5.487 7.83211C5.43011 8.17991 5.12782 8.42869 4.78402 8.42869C4.74589 8.42869 4.70622 8.425 4.66624 8.41916C4.27877 8.35458 4.01646 7.98587 4.08104 7.5984ZM4.0223 11.8353C4.0223 11.442 4.3415 11.1228 4.73666 11.1228C5.13182 11.1228 5.44917 11.442 5.44917 11.8353V11.9836C5.44917 12.3769 5.12997 12.6961 4.73666 12.6961C4.34335 12.6961 4.0223 12.3769 4.0223 11.9836V11.8353ZM4.0223 16.1086C4.0223 15.7134 4.3415 15.3942 4.73666 15.3942C5.13182 15.3942 5.44917 15.7134 5.44917 16.1086V16.255C5.44917 16.6501 5.12997 16.9693 4.73666 16.9693C4.34335 16.9693 4.0223 16.6501 4.0223 16.255V16.1086ZM4.0223 20.3797C4.0223 19.9864 4.3415 19.6672 4.73666 19.6672C5.13182 19.6672 5.44917 19.9864 5.44917 20.3797V20.5279C5.44917 20.9212 5.12997 21.2404 4.73666 21.2404C4.34335 21.2404 4.0223 20.9212 4.0223 20.5279V20.3797ZM4.0223 24.6508C4.0223 24.2574 4.3415 23.9382 4.73666 23.9382C5.13182 23.9382 5.44917 24.2574 5.44917 24.6508V24.799C5.44917 25.1923 5.12997 25.5115 4.73666 25.5115C4.34335 25.5115 4.0223 25.1923 4.0223 24.799V24.6508ZM13.3532 33.9798H13.2069C12.8136 33.9798 12.4944 33.6606 12.4944 33.2655C12.4944 32.8703 12.8136 32.553 13.2069 32.553H13.3532C13.7484 32.553 14.0676 32.8722 14.0676 33.2655C14.0676 33.6588 13.7484 33.9798 13.3532 33.9798ZM17.6265 33.9798H17.4783C17.0849 33.9798 16.7657 33.6606 16.7657 33.2655C16.7657 32.8703 17.0849 32.553 17.4783 32.553H17.6265C18.0198 32.553 18.339 32.8722 18.339 33.2655C18.339 33.6588 18.0198 33.9798 17.6265 33.9798ZM21.8976 33.9798H21.7493C21.356 33.9798 21.0368 33.6606 21.0368 33.2655C21.0368 32.8703 21.356 32.553 21.7493 32.553H21.8976C22.2909 32.553 22.6101 32.8722 22.6101 33.2655C22.6101 33.6588 22.2909 33.9798 21.8976 33.9798ZM26.1686 33.9798H26.0223C25.6271 33.9798 25.3079 33.6606 25.3079 33.2655C25.3079 32.8703 25.6271 32.553 26.0223 32.553H26.1686C26.5638 32.553 26.883 32.8722 26.883 33.2655C26.883 33.6588 26.5638 33.9798 26.1686 33.9798ZM30.5824 33.8885C30.5237 33.8999 30.4665 33.9113 30.4078 33.9208C30.3678 33.9267 30.3281 33.9303 30.29 33.9303C29.948 33.9303 29.6457 33.6834 29.587 33.3338C29.5224 32.9463 29.7847 32.5776 30.174 32.513C30.2122 32.5072 30.2518 32.4998 30.29 32.4921C30.6756 32.4103 31.0538 32.6575 31.1335 33.0432C31.2153 33.4288 30.9662 33.807 30.5824 33.8885ZM33.9208 30.4038C33.9113 30.4628 33.8999 30.5215 33.8885 30.5784C33.8181 30.9148 33.5217 31.1446 33.1914 31.1446C33.1419 31.1446 33.0927 31.1409 33.045 31.1295C32.6594 31.0498 32.4121 30.6716 32.4921 30.286C32.4998 30.2478 32.5072 30.21 32.513 30.17C32.5794 29.7826 32.9463 29.5203 33.3338 29.583C33.7231 29.6476 33.9854 30.0163 33.9208 30.4038ZM33.9798 26.165C33.9798 26.5601 33.6588 26.8793 33.2655 26.8793C32.8722 26.8793 32.553 26.5601 32.553 26.165V26.0186C32.553 25.6253 32.8722 25.3061 33.2655 25.3061C33.6588 25.3061 33.9798 25.6253 33.9798 26.0186V26.165ZM33.9798 21.8939C33.9798 22.289 33.6588 22.6082 33.2655 22.6082C32.8722 22.6082 32.553 22.289 32.553 21.8939V21.7475C32.553 21.3523 32.8722 21.0331 33.2655 21.0331C33.6588 21.0331 33.9798 21.3523 33.9798 21.7475V21.8939ZM33.9798 17.6228C33.9798 18.0161 33.6588 18.3353 33.2655 18.3353C32.8722 18.3353 32.553 18.0161 32.553 17.6228V17.4746C32.553 17.0813 32.8722 16.7621 33.2655 16.7621C33.6588 16.7621 33.9798 17.0813 33.9798 17.4746V17.6228ZM33.9798 13.3517C33.9798 13.745 33.6588 14.0642 33.2655 14.0642C32.8722 14.0642 32.553 13.745 32.553 13.3517V13.2035C32.553 12.8102 32.8722 12.491 33.2655 12.491C33.6588 12.491 33.9798 12.8102 33.9798 13.2035V13.3517ZM33.9798 10.7753C33.9798 11.1687 33.6588 11.4879 33.2655 11.4879C32.8722 11.4879 32.553 11.1687 32.553 10.7753V6.45844L6.45813 32.5527H10.775C11.1683 32.5527 11.4875 32.8719 11.4875 33.2652C11.4875 33.6585 11.1683 33.9795 10.775 33.9795H4.73697C4.68961 33.9795 4.64195 33.9737 4.59643 33.9645C4.57552 33.9608 4.55461 33.9531 4.5337 33.9473C4.51095 33.9396 4.48634 33.934 4.46328 33.9245C4.43868 33.915 4.41592 33.8999 4.39286 33.8864C4.37564 33.8768 4.35688 33.8691 4.33966 33.8596C4.26186 33.8064 4.19513 33.74 4.14193 33.66C4.13055 33.645 4.12471 33.6259 4.11333 33.6087C4.10195 33.5859 4.08657 33.5632 4.07735 33.5383C4.06782 33.5155 4.06228 33.4909 4.05459 33.4678C4.04875 33.4469 4.04137 33.426 4.03737 33.4051C4.02784 33.3596 4.0223 33.3119 4.0223 33.2646V27.2265C4.0223 26.8313 4.3415 26.5121 4.73666 26.5121C5.13182 26.5121 5.44917 26.8313 5.44917 27.2265V31.5434L31.544 5.44917H27.2271C26.832 5.44917 26.5128 5.12997 26.5128 4.73666C26.5128 4.34335 26.832 4.0223 27.2271 4.0223H33.2655C33.3128 4.0223 33.3587 4.02815 33.406 4.03737C33.4269 4.04106 33.446 4.04875 33.4669 4.05459C33.4897 4.06228 33.5143 4.06782 33.5392 4.07735C33.5619 4.08688 33.5847 4.1001 33.6074 4.11333C33.6247 4.12286 33.6434 4.13055 33.6606 4.14193C33.7384 4.19513 33.807 4.26155 33.8584 4.3415C33.8698 4.35657 33.8774 4.37564 33.887 4.39286C33.9002 4.41562 33.9134 4.43837 33.9251 4.46328C33.9346 4.48604 33.9402 4.51064 33.946 4.53555C33.9537 4.55461 33.9611 4.57552 33.9651 4.59643C33.9746 4.64195 33.9802 4.68961 33.9802 4.73697V10.775L33.9798 10.7753Z" fill="url(#paint0_linear_2265_99)"/>
</g>
<defs>
<linearGradient id="paint0_linear_2265_99" x1="0" y1="0" x2="38.0008" y2="37.9997" gradientUnits="userSpaceOnUse">
<stop stop-color="#AA2EFF"/>
<stop offset="1" stop-color="#00DACC"/>
</linearGradient>
<clipPath id="clip0_2265_99">
<rect width="38" height="38" fill="white"/>
</clipPath>
</defs>
</svg>
