<svg width="50" height="50" viewBox="0 0 50 50" fill="none" xmlns="http://www.w3.org/2000/svg">
<path d="M24.7993 18.662C21.4687 18.662 18.7092 21.374 18.7092 24.7521C18.7092 28.1302 21.4212 30.8423 24.7993 30.8423C28.1774 30.8423 30.8894 28.0827 30.8894 24.7521C30.8894 21.4216 28.1298 18.662 24.7993 18.662ZM24.7993 28.6536C22.6582 28.6536 20.8978 26.8932 20.8978 24.7521C20.8978 22.6111 22.6582 20.8506 24.7993 20.8506C26.9403 20.8506 28.7008 22.6111 28.7008 24.7521C28.7008 26.8932 26.9403 28.6536 24.7993 28.6536Z" fill="#00D2FF"/>
<path d="M31.1275 19.8992C31.8895 19.8992 32.5073 19.2814 32.5073 18.5194C32.5073 17.7573 31.8895 17.1396 31.1275 17.1396C30.3655 17.1396 29.7477 17.7573 29.7477 18.5194C29.7477 19.2814 30.3655 19.8992 31.1275 19.8992Z" fill="#00D2FF"/>
<path d="M34.6961 14.9507C33.459 13.6661 31.6986 13 29.7003 13H19.899C15.7596 13 13 15.7596 13 19.899V29.6527C13 31.6986 13.6661 33.459 14.9983 34.7436C16.283 35.9807 17.9958 36.5992 19.9465 36.5992H29.6527C31.6986 36.5992 33.4114 35.9331 34.6485 34.7436C35.9331 33.5066 36.5992 31.7462 36.5992 29.7003V19.899C36.5992 17.9006 35.9331 16.1878 34.6961 14.9507ZM34.5057 29.7003C34.5057 31.1752 33.9824 32.3647 33.1259 33.1735C32.2695 33.9824 31.08 34.4106 29.6527 34.4106H19.9465C18.5192 34.4106 17.3297 33.9824 16.4733 33.1735C15.6168 32.3171 15.1886 31.1276 15.1886 29.6527V19.899C15.1886 18.4716 15.6168 17.2821 16.4733 16.4257C17.2821 15.6168 18.5192 15.1886 19.9465 15.1886H29.7478C31.1752 15.1886 32.3647 15.6168 33.2211 16.4733C34.03 17.3297 34.5057 18.5192 34.5057 19.899V29.7003Z" fill="#00D2FF"/>
</svg>
