<svg width="50" height="50" viewBox="0 0 50 50" fill="none" xmlns="http://www.w3.org/2000/svg">
<path d="M37.86 19.3605C37.86 19.1418 37.532 17.3922 36.7665 16.6267C35.7824 15.5332 34.6889 15.4239 34.1421 15.4239H34.0327C30.6429 15.2052 25.6127 15.2052 25.5034 15.2052C25.5034 15.2052 20.3639 15.2052 16.974 15.4239H16.8646C16.3179 15.4239 15.2244 15.5332 14.2402 16.6267C13.4748 17.5015 13.1467 19.2512 13.1467 19.4699C13.1467 19.5792 12.928 21.5475 12.928 23.6252V25.4842C12.928 27.5618 13.1467 29.5301 13.1467 29.6395C13.1467 29.8582 13.4748 31.6078 14.2402 32.3733C15.115 33.3574 16.2085 33.4668 16.8646 33.5761C16.974 33.5761 17.0833 33.5761 17.1927 33.5761C19.161 33.7948 25.1753 33.7948 25.394 33.7948C25.394 33.7948 30.5335 33.7948 33.9234 33.5761H34.0327C34.5795 33.4668 35.673 33.3574 36.6572 32.3733C37.4226 31.4985 37.7507 29.7488 37.7507 29.5301C37.7507 29.4208 37.9694 27.4525 37.9694 25.3748V23.5158C38.0787 21.5475 37.86 19.4699 37.86 19.3605ZM29.7681 24.7187L23.207 28.2179C23.0976 28.2179 23.0976 28.3273 22.9883 28.3273C22.8789 28.3273 22.7696 28.3273 22.7696 28.2179C22.6602 28.1086 22.5509 27.9992 22.5509 27.7805V20.6727C22.5509 20.454 22.6602 20.3447 22.7696 20.2353C22.8789 20.126 23.0976 20.126 23.3163 20.2353L29.8774 23.7345C30.0961 23.8439 30.2055 23.9532 30.2055 24.1719C30.2055 24.3906 29.9868 24.6094 29.7681 24.7187Z" fill="#00D2FF"/>
</svg>
