<svg width="50" height="50" viewBox="0 0 50 50" fill="none" xmlns="http://www.w3.org/2000/svg">
<path d="M36.3278 17.3594C32.6814 14.6308 29.1877 14.7074 29.1877 14.7074L28.8307 15.1154C33.1657 16.4159 35.1803 18.3284 35.1803 18.3284C28.978 14.9136 21.0781 14.9382 14.6269 18.3284C14.6269 18.3284 16.7179 16.3138 21.3081 15.0132L21.0532 14.7071C21.0532 14.7071 17.585 14.6308 13.9132 17.3591C13.9132 17.3591 10.241 23.9636 10.241 32.0985C10.241 32.0985 12.3832 35.7707 18.0187 35.9492C18.0187 35.9492 18.9623 34.8271 19.7272 33.8582C16.4888 32.8892 15.2646 30.8746 15.2646 30.8746C17.2993 32.1478 19.3565 32.9446 21.9204 33.4502C26.0915 34.3088 31.28 33.4261 35.1552 30.8746C35.1552 30.8746 33.8801 32.9401 30.5395 33.8836C31.3045 34.8271 32.2225 35.9237 32.2225 35.9237C37.8581 35.7452 40 32.073 40 32.0988C39.9997 23.964 36.3278 17.3594 36.3278 17.3594ZM20.3646 29.7271C18.9365 29.7271 17.7635 28.4775 17.7635 26.9221C17.8679 23.1968 22.8874 23.2082 22.9657 26.9221C22.9657 28.4775 21.8179 29.7271 20.3646 29.7271ZM29.6721 29.7271C28.2439 29.7271 27.071 28.4775 27.071 26.9221C27.1855 23.2041 32.1423 23.2025 32.2731 26.9221C32.2731 28.4775 31.1257 29.7271 29.6721 29.7271Z" fill="#00D2FF"/>
</svg>
