<svg width="36" height="36" viewBox="0 0 36 36" fill="none" xmlns="http://www.w3.org/2000/svg">
<rect width="36" height="36" rx="18" fill="url(#paint0_linear_5_5)"/>
<g clip-path="url(#clip0_5_5)">
<rect x="34" y="34" width="32" height="32" rx="16" transform="rotate(-180 34 34)" fill="url(#paint1_linear_5_5)"/>
<circle cx="18" cy="18" r="4" transform="rotate(-45 18 18)" stroke="#00D2FF" stroke-width="2"/>
<path d="M9.99986 17.9999L10.9999 17.9999" stroke="#00D2FF" stroke-width="2" stroke-linecap="round"/>
<path d="M24.9999 17.9999H25.9999" stroke="#00D2FF" stroke-width="2" stroke-linecap="round"/>
<path d="M17.9999 9.99993L17.9999 10.9999" stroke="#00D2FF" stroke-width="2" stroke-linecap="round"/>
<path d="M17.9999 24.9999L17.9999 25.9999" stroke="#00D2FF" stroke-width="2" stroke-linecap="round"/>
<path d="M12.343 23.6568L13.0501 22.9497" stroke="#00D2FF" stroke-width="2" stroke-linecap="round"/>
<path d="M22.9496 13.0502L23.6567 12.3431" stroke="#00D2FF" stroke-width="2" stroke-linecap="round"/>
<path d="M12.343 12.3431L13.0501 13.0502" stroke="#00D2FF" stroke-width="2" stroke-linecap="round"/>
<path d="M22.9496 22.9497L23.6567 23.6568" stroke="#00D2FF" stroke-width="2" stroke-linecap="round"/>
</g>
<defs>
<linearGradient id="paint0_linear_5_5" x1="18" y1="0" x2="18" y2="36" gradientUnits="userSpaceOnUse">
<stop stop-color="#252525"/>
<stop offset="1"/>
</linearGradient>
<linearGradient id="paint1_linear_5_5" x1="50" y1="34" x2="50" y2="66" gradientUnits="userSpaceOnUse">
<stop stop-color="#252525"/>
<stop offset="1"/>
</linearGradient>
<clipPath id="clip0_5_5">
<rect x="34" y="34" width="32" height="32" rx="16" transform="rotate(-180 34 34)" fill="white"/>
</clipPath>
</defs>
</svg>
