<svg width="43" height="43" viewBox="0 0 43 43" fill="none" xmlns="http://www.w3.org/2000/svg">
<path d="M22.201 2.44312C15.0303 2.44312 9.2168 8.29206 9.2168 15.5065C9.2168 16.7154 9.3802 17.8875 9.68587 18.9997C9.80891 19.4445 9.95309 19.8816 10.1203 20.3052L10.5144 21.2046L20.4395 39.6547C21.1945 41.0582 23.2074 41.0581 23.9622 39.6546L33.9029 21.1717L34.2586 20.3613C34.4355 19.9184 34.5873 19.4639 34.7161 18.9977C35.0218 17.8856 35.1852 16.7154 35.1852 15.5046C35.1852 8.29206 29.3717 2.44312 22.201 2.44312ZM22.201 21.1659C19.029 21.1659 16.4567 18.578 16.4567 15.3866C16.4567 12.1952 19.029 9.6073 22.201 9.6073C25.373 9.6073 27.9453 12.1952 27.9453 15.3866C27.9453 18.5799 25.373 21.1659 22.201 21.1659Z" fill="#00D2FF"/>
</svg>
